<?xml version="1.0" encoding="UTF-8"?>
<svg xmlns="http://www.w3.org/2000/svg" xmlns:xlink="http://www.w3.org/1999/xlink" width="148.5" height="55.5" viewBox="0 0 148.5 55.5">
<path fill-rule="nonzero" fill="rgb(74.508667%, 11.764526%, 23.529053%)" fill-opacity="1" d="M 0 0 L 148.816406 0 L 148.816406 55.273438 L 0 55.273438 Z M 0 0 "/>
<path fill-rule="evenodd" fill="rgb(100%, 100%, 100%)" fill-opacity="1" d="M 30.75 24.976562 C 31.074219 24.796875 31.386719 24.601562 31.6875 24.382812 C 31.988281 24.140625 32.214844 23.820312 32.347656 23.460938 C 32.039062 23.054688 31.902344 22.542969 31.964844 22.035156 C 31.964844 21.929688 31.828125 21.824219 31.648438 21.914062 C 31.304688 22.074219 30.949219 22.214844 30.585938 22.328125 C 30.585938 22.328125 30.464844 23.078125 30.621094 23.203125 C 30.78125 23.332031 31.164062 23.316406 31.132812 23.574219 C 31.050781 23.796875 30.902344 23.996094 30.710938 24.140625 C 30.480469 24.324219 30.226562 24.480469 29.960938 24.609375 C 29.589844 24.492188 29.203125 24.457031 28.816406 24.496094 C 28.679688 24.492188 28.5625 24.59375 28.546875 24.726562 C 28.496094 24.71875 28.445312 24.71875 28.394531 24.726562 C 28.34375 24.75 28.300781 24.789062 28.265625 24.832031 C 28.304688 24.878906 28.355469 24.914062 28.410156 24.9375 C 28.457031 24.945312 28.503906 24.945312 28.550781 24.9375 C 28.585938 25.054688 28.679688 25.136719 28.800781 25.15625 C 29.046875 25.207031 29.304688 25.207031 29.550781 25.15625 C 29.648438 25.15625 29.722656 25.15625 29.746094 25.222656 C 29.765625 25.289062 29.699219 25.363281 29.632812 25.402344 C 29.433594 25.5 29.253906 25.628906 29.101562 25.785156 C 28.996094 25.898438 28.953125 26.054688 28.996094 26.203125 C 28.957031 26.253906 28.929688 26.304688 28.914062 26.363281 C 28.894531 26.429688 28.894531 26.5 28.914062 26.566406 C 28.960938 26.574219 29.011719 26.574219 29.0625 26.566406 C 29.121094 26.542969 29.171875 26.503906 29.203125 26.453125 C 29.371094 26.503906 29.546875 26.429688 29.632812 26.28125 C 29.738281 26.113281 29.828125 25.933594 29.894531 25.746094 C 29.894531 25.636719 29.976562 25.613281 30.039062 25.628906 C 30.097656 25.640625 30.136719 25.679688 30.105469 25.851562 C 30.082031 26.023438 30.082031 26.191406 30.105469 26.363281 C 30.179688 26.789062 30.421875 26.765625 30.421875 26.765625 C 30.433594 26.816406 30.457031 26.863281 30.488281 26.902344 C 30.53125 26.957031 30.59375 27 30.660156 27.023438 C 30.691406 26.953125 30.703125 26.878906 30.699219 26.804688 C 30.703125 26.765625 30.703125 26.726562 30.699219 26.683594 C 30.792969 26.609375 30.832031 26.484375 30.796875 26.371094 C 30.746094 26.15625 30.652344 25.953125 30.515625 25.777344 C 30.457031 25.6875 30.515625 25.613281 30.515625 25.574219 C 30.515625 25.539062 30.652344 25.574219 30.726562 25.648438 C 30.828125 25.816406 30.976562 25.949219 31.148438 26.039062 C 31.25 26.109375 31.386719 26.109375 31.492188 26.039062 C 31.53125 26.0625 31.570312 26.082031 31.613281 26.101562 C 31.675781 26.113281 31.738281 26.113281 31.800781 26.101562 C 31.789062 26.039062 31.773438 25.976562 31.746094 25.921875 C 31.722656 25.871094 31.691406 25.828125 31.648438 25.792969 C 31.664062 25.683594 31.640625 25.570312 31.574219 25.476562 C 31.324219 25.269531 31.046875 25.101562 30.75 24.976562 Z M 30.75 24.976562 "/>
<path fill-rule="evenodd" fill="rgb(100%, 100%, 100%)" fill-opacity="1" d="M 35.496094 26.039062 C 35.4375 26.054688 35.371094 26.054688 35.308594 26.039062 L 35.191406 25.980469 C 35.085938 26.050781 34.949219 26.050781 34.84375 25.980469 C 34.671875 25.890625 34.527344 25.753906 34.425781 25.589844 C 34.351562 25.484375 34.265625 25.46875 34.214844 25.515625 C 34.164062 25.558594 34.140625 25.628906 34.214844 25.71875 C 34.351562 25.894531 34.445312 26.097656 34.492188 26.316406 C 34.527344 26.433594 34.488281 26.558594 34.394531 26.632812 C 34.445312 26.742188 34.445312 26.867188 34.394531 26.976562 C 34.328125 26.957031 34.265625 26.914062 34.222656 26.859375 C 34.191406 26.816406 34.167969 26.773438 34.15625 26.722656 C 34.15625 26.722656 33.921875 26.722656 33.839844 26.316406 C 33.816406 26.148438 33.816406 25.976562 33.839844 25.808594 C 33.839844 25.636719 33.839844 25.597656 33.773438 25.582031 C 33.703125 25.566406 33.660156 25.582031 33.621094 25.703125 C 33.554688 25.890625 33.464844 26.066406 33.359375 26.234375 C 33.277344 26.386719 33.097656 26.457031 32.933594 26.40625 C 32.898438 26.460938 32.847656 26.5 32.789062 26.519531 C 32.742188 26.53125 32.6875 26.53125 32.640625 26.519531 C 32.621094 26.453125 32.621094 26.382812 32.640625 26.316406 C 32.660156 26.261719 32.6875 26.207031 32.722656 26.160156 C 32.683594 26.011719 32.722656 25.851562 32.828125 25.738281 C 32.984375 25.585938 33.164062 25.457031 33.359375 25.359375 C 33.421875 25.320312 33.496094 25.261719 33.472656 25.175781 C 33.449219 25.09375 33.375 25.085938 33.277344 25.109375 C 33.03125 25.164062 32.773438 25.164062 32.527344 25.109375 C 32.410156 25.09375 32.3125 25.007812 32.28125 24.890625 C 32.234375 24.902344 32.183594 24.902344 32.136719 24.890625 C 32.082031 24.867188 32.035156 24.832031 31.996094 24.789062 C 32.027344 24.742188 32.074219 24.707031 32.121094 24.683594 C 32.171875 24.675781 32.222656 24.675781 32.273438 24.683594 C 32.273438 24.683594 32.273438 24.488281 32.542969 24.449219 C 32.925781 24.414062 33.3125 24.464844 33.675781 24.59375 C 33.859375 24.113281 33.933594 23.601562 33.890625 23.09375 C 33.816406 22.636719 33.21875 22.761719 33.007812 22.34375 C 32.796875 21.921875 32.796875 21.007812 32.4375 20.941406 C 31.835938 20.828125 32.324219 21.292969 30.1875 21.808594 C 29.542969 21.96875 29.039062 21.878906 28.6875 22.246094 C 28.546875 22.386719 28.304688 23.070312 27.9375 23.503906 C 27.65625 23.90625 27.296875 24.246094 26.878906 24.503906 C 27.105469 24.597656 27.3125 24.738281 27.480469 24.914062 C 27.539062 25.007812 27.566406 25.121094 27.554688 25.230469 C 27.597656 25.265625 27.628906 25.308594 27.652344 25.359375 C 27.675781 25.414062 27.695312 25.476562 27.703125 25.539062 C 27.644531 25.550781 27.578125 25.550781 27.515625 25.539062 L 27.441406 25.5 C 27.339844 25.570312 27.203125 25.570312 27.097656 25.5 C 26.925781 25.410156 26.78125 25.277344 26.675781 25.109375 C 26.601562 25.003906 26.519531 24.988281 26.46875 25.035156 C 26.414062 25.078125 26.390625 25.148438 26.46875 25.238281 C 26.601562 25.414062 26.699219 25.621094 26.746094 25.835938 C 26.78125 25.953125 26.742188 26.078125 26.648438 26.152344 C 26.652344 26.191406 26.652344 26.234375 26.648438 26.273438 C 26.652344 26.347656 26.640625 26.421875 26.609375 26.488281 C 26.542969 26.46875 26.480469 26.425781 26.4375 26.371094 C 26.40625 26.328125 26.382812 26.285156 26.371094 26.234375 C 26.371094 26.234375 26.136719 26.234375 26.054688 25.828125 C 26.03125 25.660156 26.03125 25.488281 26.054688 25.320312 C 26.054688 25.148438 26.054688 25.109375 25.988281 25.09375 C 25.921875 25.078125 25.875 25.09375 25.84375 25.214844 C 25.777344 25.402344 25.6875 25.578125 25.582031 25.746094 C 25.5 25.898438 25.320312 25.96875 25.15625 25.921875 C 25.121094 25.972656 25.070312 26.011719 25.011719 26.03125 C 24.964844 26.042969 24.910156 26.042969 24.863281 26.03125 C 24.84375 25.964844 24.84375 25.890625 24.863281 25.824219 C 24.882812 25.765625 24.910156 25.714844 24.945312 25.664062 C 24.90625 25.515625 24.945312 25.355469 25.050781 25.246094 C 25.207031 25.089844 25.386719 24.960938 25.582031 24.863281 C 25.648438 24.824219 25.71875 24.765625 25.695312 24.683594 C 25.671875 24.601562 25.597656 24.59375 25.5 24.613281 C 25.253906 24.667969 24.996094 24.667969 24.75 24.613281 C 24.632812 24.597656 24.535156 24.511719 24.503906 24.398438 C 24.457031 24.40625 24.40625 24.40625 24.359375 24.398438 C 24.304688 24.375 24.257812 24.339844 24.21875 24.292969 C 24.25 24.246094 24.292969 24.210938 24.34375 24.1875 C 24.394531 24.179688 24.445312 24.179688 24.496094 24.1875 C 24.535156 24.054688 24.652344 23.960938 24.789062 23.949219 C 25.203125 23.898438 25.625 23.945312 26.015625 24.089844 C 26.40625 23.839844 26.757812 23.539062 27.066406 23.199219 C 27.265625 22.917969 27.40625 22.597656 27.480469 22.261719 C 27.546875 21.878906 27.441406 21.839844 27.324219 21.75 C 27.042969 21.566406 26.792969 21.34375 26.574219 21.089844 C 26.300781 20.722656 26.152344 20.28125 26.136719 19.824219 C 25.835938 19.539062 25.5625 19.230469 25.3125 18.898438 C 25.335938 19.152344 25.304688 19.410156 25.214844 19.648438 C 25.15625 19.746094 25.0625 19.816406 24.953125 19.84375 C 24.933594 19.894531 24.90625 19.941406 24.871094 19.980469 C 24.828125 20.027344 24.78125 20.066406 24.726562 20.101562 C 24.695312 20.042969 24.679688 19.984375 24.675781 19.921875 C 24.671875 19.875 24.671875 19.828125 24.675781 19.785156 C 24.566406 19.71875 24.507812 19.59375 24.523438 19.46875 C 24.539062 19.277344 24.609375 19.089844 24.71875 18.929688 C 24.789062 18.824219 24.765625 18.742188 24.71875 18.703125 C 24.675781 18.667969 24.585938 18.703125 24.523438 18.765625 C 24.414062 18.957031 24.265625 19.125 24.082031 19.253906 C 23.984375 19.320312 23.851562 19.320312 23.753906 19.253906 C 23.722656 19.28125 23.691406 19.308594 23.65625 19.328125 C 23.589844 19.363281 23.511719 19.378906 23.4375 19.378906 C 23.429688 19.308594 23.441406 19.234375 23.476562 19.171875 C 23.5 19.125 23.53125 19.089844 23.574219 19.058594 C 23.574219 19.058594 23.453125 18.855469 23.820312 18.613281 C 23.96875 18.527344 24.128906 18.460938 24.292969 18.414062 C 24.464844 18.375 24.480469 18.316406 24.472656 18.261719 C 24.464844 18.210938 24.421875 18.164062 24.308594 18.171875 C 24.109375 18.191406 23.910156 18.191406 23.714844 18.171875 C 23.542969 18.152344 23.410156 18.015625 23.390625 17.84375 C 23.332031 17.832031 23.277344 17.800781 23.234375 17.753906 C 23.199219 17.714844 23.171875 17.671875 23.152344 17.625 C 23.207031 17.582031 23.269531 17.550781 23.339844 17.542969 C 23.398438 17.53125 23.457031 17.53125 23.511719 17.542969 C 23.632812 17.445312 23.796875 17.421875 23.941406 17.476562 C 24.144531 17.554688 24.335938 17.671875 24.503906 17.8125 C 24.5625 17.859375 24.652344 17.902344 24.710938 17.8125 C 24.773438 17.722656 24.765625 17.683594 24.710938 17.601562 C 24.566406 17.40625 24.460938 17.1875 24.40625 16.949219 C 24.375 16.835938 24.414062 16.71875 24.503906 16.640625 C 24.496094 16.59375 24.496094 16.546875 24.503906 16.5 C 24.5 16.441406 24.515625 16.382812 24.539062 16.328125 C 24.59375 16.339844 24.648438 16.367188 24.691406 16.402344 C 24.726562 16.441406 24.757812 16.484375 24.78125 16.53125 C 24.929688 16.503906 25.074219 16.578125 25.148438 16.710938 C 25.3125 16.992188 25.375 17.324219 25.320312 17.648438 C 25.464844 17.933594 25.664062 18.1875 25.90625 18.398438 C 26.078125 18.542969 26.269531 18.664062 26.476562 18.757812 C 26.660156 18.484375 26.878906 18.230469 27.121094 18.007812 C 27.441406 17.691406 27.667969 17.558594 27.871094 17.332031 C 28.039062 17.179688 28.183594 17 28.296875 16.800781 C 27.96875 16.710938 27.621094 16.710938 27.292969 16.800781 C 27.234375 16.710938 27.128906 16.507812 27.226562 16.378906 C 27.617188 16.246094 28.039062 16.226562 28.441406 16.328125 C 28.523438 16.191406 28.703125 15.863281 28.492188 15.683594 C 28.050781 15.445312 27.519531 15.445312 27.074219 15.683594 C 26.890625 15.566406 26.816406 15.335938 26.902344 15.136719 C 26.640625 14.851562 26.8125 14.761719 26.902344 14.722656 C 27.167969 14.632812 27.449219 14.601562 27.726562 14.625 C 27.726562 14.519531 27.746094 14.414062 27.789062 14.316406 C 27.914062 13.996094 28.746094 14.101562 29.0625 14.101562 C 29.257812 14.09375 29.449219 14.070312 29.640625 14.023438 C 29.886719 13.972656 29.902344 14.21875 29.835938 14.316406 L 29.671875 14.535156 C 29.9375 14.617188 30.15625 14.808594 30.269531 15.058594 C 30.34375 15.269531 30.269531 15.503906 30.34375 15.691406 C 30.414062 15.855469 30.503906 16.011719 30.613281 16.15625 C 30.738281 16.386719 30.8125 16.644531 30.832031 16.90625 C 30.832031 17.160156 30.613281 17.160156 30.515625 17.085938 C 30.421875 17.011719 30.316406 16.84375 30.148438 16.867188 C 29.984375 16.890625 29.960938 17.023438 29.925781 17.136719 C 30.058594 17.375 30.164062 17.625 30.238281 17.886719 C 30.289062 18.15625 30.289062 18.429688 30.238281 18.699219 C 30.238281 18.953125 29.953125 18.886719 29.886719 18.78125 C 29.820312 18.675781 29.761719 18.503906 29.585938 18.480469 C 29.414062 18.457031 29.257812 18.644531 29.234375 18.839844 C 29.195312 19.035156 29.238281 19.238281 29.347656 19.402344 C 29.859375 20.152344 32.183594 18.734375 33.195312 19.539062 C 33.253906 19.273438 33.253906 19 33.195312 18.734375 C 33.074219 18.195312 32.144531 17.941406 31.695312 17.324219 C 31.605469 17.199219 31.539062 17.054688 31.5 16.90625 C 31.457031 16.144531 31.652344 15.386719 32.0625 14.746094 C 31.910156 14.371094 31.910156 13.949219 32.0625 13.574219 C 32.160156 13.328125 32.292969 13.097656 32.453125 12.886719 C 32.609375 12.667969 32.992188 12.699219 32.992188 12.824219 C 32.992188 12.824219 32.542969 13.34375 32.714844 13.523438 C 32.886719 13.703125 33.691406 13.117188 33.089844 14.378906 C 32.871094 14.828125 32.59375 14.96875 32.339844 14.933594 C 32.011719 15.484375 31.871094 16.125 31.933594 16.761719 C 32.003906 16.988281 32.140625 17.183594 32.332031 17.324219 C 32.804688 17.714844 33.515625 17.96875 33.667969 18.675781 C 33.71875 19.140625 33.667969 19.613281 33.511719 20.054688 C 33.636719 20.460938 33.734375 20.875 33.800781 21.292969 C 33.855469 21.441406 33.96875 21.683594 34.148438 21.667969 C 34.328125 21.652344 34.394531 21.480469 34.460938 21.390625 C 34.53125 21.300781 34.769531 21.238281 34.808594 21.496094 C 34.871094 21.742188 34.910156 21.992188 34.933594 22.246094 C 34.902344 23.148438 34.691406 24.035156 34.3125 24.855469 C 34.582031 24.9375 34.835938 25.058594 35.0625 25.222656 C 35.363281 25.425781 35.28125 25.613281 35.265625 25.695312 C 35.304688 25.730469 35.339844 25.773438 35.363281 25.824219 C 35.417969 25.886719 35.464844 25.960938 35.496094 26.039062 Z M 28.214844 14.707031 C 28.214844 14.707031 28.582031 15.195312 28.792969 15.046875 C 29.003906 14.894531 28.867188 14.730469 28.738281 14.59375 C 28.613281 14.460938 28.378906 14.542969 28.214844 14.699219 Z M 28.214844 14.707031 "/>
<path fill-rule="evenodd" fill="rgb(100%, 100%, 100%)" fill-opacity="1" d="M 25.890625 16.191406 C 26.351562 16.355469 26.863281 16.269531 27.246094 15.96875 C 26.316406 16.101562 25.972656 15.839844 26.191406 15.382812 C 25.5 15.464844 25.582031 16.066406 25.890625 16.191406 Z M 25.890625 16.191406 "/>
<path fill-rule="evenodd" fill="rgb(100%, 100%, 100%)" fill-opacity="1" d="M 30.75 39.234375 C 31.074219 39.054688 31.386719 38.859375 31.6875 38.640625 C 31.988281 38.398438 32.214844 38.078125 32.347656 37.71875 C 32.039062 37.308594 31.902344 36.792969 31.964844 36.285156 C 31.964844 36.179688 31.828125 36.074219 31.648438 36.164062 C 31.304688 36.324219 30.949219 36.464844 30.585938 36.578125 C 30.585938 36.578125 30.464844 37.328125 30.621094 37.453125 C 30.78125 37.582031 31.164062 37.566406 31.132812 37.824219 C 31.050781 38.046875 30.902344 38.246094 30.710938 38.390625 C 30.480469 38.574219 30.226562 38.726562 29.960938 38.859375 C 29.589844 38.742188 29.203125 38.707031 28.816406 38.746094 C 28.679688 38.742188 28.5625 38.84375 28.546875 38.976562 C 28.496094 38.96875 28.445312 38.96875 28.394531 38.976562 C 28.34375 39.003906 28.300781 39.039062 28.265625 39.082031 C 28.304688 39.128906 28.355469 39.164062 28.410156 39.1875 C 28.457031 39.195312 28.503906 39.195312 28.550781 39.1875 C 28.585938 39.300781 28.683594 39.382812 28.800781 39.398438 C 29.046875 39.449219 29.304688 39.449219 29.550781 39.398438 C 29.648438 39.398438 29.722656 39.398438 29.746094 39.464844 C 29.765625 39.53125 29.699219 39.609375 29.632812 39.644531 C 29.433594 39.742188 29.253906 39.871094 29.101562 40.027344 C 28.996094 40.140625 28.953125 40.296875 28.996094 40.449219 C 28.957031 40.496094 28.929688 40.546875 28.914062 40.605469 C 28.894531 40.671875 28.894531 40.746094 28.914062 40.816406 C 28.960938 40.824219 29.011719 40.824219 29.0625 40.816406 C 29.121094 40.792969 29.171875 40.753906 29.203125 40.703125 C 29.371094 40.753906 29.546875 40.679688 29.632812 40.53125 C 29.738281 40.363281 29.828125 40.183594 29.894531 39.996094 C 29.894531 39.886719 29.976562 39.863281 30.039062 39.878906 C 30.097656 39.890625 30.136719 39.921875 30.105469 40.101562 C 30.082031 40.273438 30.082031 40.441406 30.105469 40.613281 C 30.179688 41.046875 30.421875 41.015625 30.421875 41.015625 C 30.433594 41.066406 30.457031 41.113281 30.488281 41.152344 C 30.53125 41.210938 30.589844 41.25 30.660156 41.273438 C 30.691406 41.203125 30.703125 41.128906 30.699219 41.054688 C 30.703125 41.015625 30.703125 40.976562 30.699219 40.933594 C 30.792969 40.859375 30.832031 40.734375 30.796875 40.621094 C 30.746094 40.40625 30.652344 40.203125 30.515625 40.027344 C 30.457031 39.9375 30.515625 39.871094 30.515625 39.824219 C 30.515625 39.78125 30.652344 39.824219 30.726562 39.898438 C 30.828125 40.066406 30.972656 40.199219 31.148438 40.289062 C 31.25 40.359375 31.386719 40.359375 31.492188 40.289062 C 31.53125 40.3125 31.570312 40.332031 31.613281 40.351562 C 31.675781 40.363281 31.738281 40.363281 31.800781 40.351562 C 31.789062 40.289062 31.773438 40.226562 31.746094 40.171875 C 31.722656 40.121094 31.691406 40.078125 31.648438 40.042969 C 31.664062 39.933594 31.640625 39.820312 31.574219 39.726562 C 31.324219 39.523438 31.046875 39.355469 30.75 39.234375 Z M 30.75 39.234375 "/>
<path fill-rule="evenodd" fill="rgb(100%, 100%, 100%)" fill-opacity="1" d="M 35.445312 40.117188 C 35.421875 40.070312 35.386719 40.023438 35.347656 39.988281 C 35.347656 39.90625 35.445312 39.71875 35.144531 39.515625 C 34.917969 39.355469 34.664062 39.230469 34.394531 39.148438 C 34.773438 38.328125 34.984375 37.441406 35.015625 36.539062 C 34.996094 36.285156 34.953125 36.035156 34.890625 35.789062 C 34.890625 35.542969 34.628906 35.566406 34.546875 35.683594 C 34.460938 35.804688 34.394531 35.949219 34.230469 35.96875 C 34.066406 35.992188 33.9375 35.746094 33.886719 35.59375 C 33.800781 35.296875 33.765625 34.957031 33.675781 34.636719 C 33.984375 34.558594 34.269531 34.402344 34.5 34.183594 C 34.859375 33.839844 34.925781 33.285156 34.65625 32.863281 C 34.476562 32.519531 34.253906 32.386719 33.15625 31.980469 C 32.789062 31.863281 32.457031 31.660156 32.183594 31.386719 C 32.09375 31.285156 32.019531 31.171875 31.957031 31.050781 C 31.855469 30.816406 31.925781 30.542969 32.121094 30.382812 L 32.371094 30.195312 C 32.890625 30.378906 33.457031 30.378906 33.976562 30.195312 C 34.328125 30.0625 34.671875 29.898438 34.996094 29.699219 C 35.289062 29.527344 35.234375 29.191406 35.085938 29.191406 C 35.085938 29.191406 34.019531 29.640625 33.832031 29.460938 C 33.644531 29.28125 34.042969 28.710938 32.910156 29.21875 C 32.503906 29.398438 32.199219 29.648438 32.21875 29.886719 C 31.78125 30.039062 31.480469 30.449219 31.46875 30.914062 C 31.496094 31.09375 31.5625 31.265625 31.664062 31.417969 C 32.085938 31.90625 32.644531 32.253906 33.269531 32.414062 C 33.914062 32.625 34.164062 32.746094 34.273438 33.164062 C 34.425781 33.726562 34.117188 34.074219 33.523438 34.164062 C 33.460938 34.039062 33.378906 33.925781 33.285156 33.824219 C 32.414062 32.925781 29.894531 34.433594 29.386719 33.691406 C 29.273438 33.523438 29.234375 33.324219 29.273438 33.128906 C 29.273438 32.933594 29.445312 32.746094 29.625 32.765625 C 29.804688 32.789062 29.871094 32.992188 29.925781 33.066406 C 29.976562 33.140625 30.246094 33.234375 30.277344 32.984375 C 30.328125 32.71875 30.328125 32.441406 30.277344 32.175781 C 30.203125 31.914062 30.097656 31.660156 29.960938 31.425781 C 30 31.320312 30.082031 31.171875 30.1875 31.15625 C 30.292969 31.140625 30.503906 31.335938 30.554688 31.371094 C 30.609375 31.410156 30.898438 31.441406 30.871094 31.191406 C 30.851562 30.929688 30.777344 30.675781 30.652344 30.441406 C 30.542969 30.300781 30.449219 30.144531 30.382812 29.976562 C 30.328125 29.789062 30.382812 29.550781 30.308594 29.347656 C 30.191406 29.09375 29.972656 28.902344 29.707031 28.824219 L 29.871094 28.605469 C 29.941406 28.507812 29.925781 28.253906 29.675781 28.3125 C 29.488281 28.355469 29.292969 28.382812 29.101562 28.386719 C 28.792969 28.386719 27.953125 28.289062 27.824219 28.605469 C 27.785156 28.703125 27.761719 28.808594 27.765625 28.914062 C 27.484375 28.886719 27.207031 28.921875 26.941406 29.011719 C 26.851562 29.046875 26.675781 29.144531 26.941406 29.421875 C 26.855469 29.621094 26.929688 29.855469 27.113281 29.96875 C 27.554688 29.734375 28.085938 29.734375 28.53125 29.96875 C 28.738281 30.148438 28.53125 30.480469 28.476562 30.613281 C 28.074219 30.515625 27.652344 30.535156 27.261719 30.667969 C 27.164062 30.796875 27.261719 30.996094 27.328125 31.085938 C 27.660156 30.996094 28.007812 30.996094 28.335938 31.085938 C 28.21875 31.285156 28.078125 31.464844 27.90625 31.621094 C 27.667969 31.835938 27.441406 31.972656 27.15625 32.289062 C 26.882812 32.539062 26.644531 32.824219 26.453125 33.140625 C 26.109375 33.078125 25.78125 32.957031 25.476562 32.789062 C 25.210938 32.632812 24.972656 32.425781 24.78125 32.183594 C 24.78125 31.855469 24.664062 31.539062 24.457031 31.289062 C 24.363281 31.171875 24.203125 31.125 24.058594 31.175781 C 24.027344 31.132812 23.992188 31.097656 23.949219 31.066406 C 23.898438 31.035156 23.847656 31.015625 23.789062 31.011719 C 23.777344 31.070312 23.777344 31.128906 23.789062 31.183594 C 23.800781 31.230469 23.824219 31.273438 23.851562 31.3125 C 23.773438 31.402344 23.753906 31.527344 23.804688 31.636719 C 23.902344 31.859375 24.039062 32.058594 24.21875 32.226562 C 24.292969 32.296875 24.316406 32.363281 24.261719 32.429688 C 24.210938 32.496094 24.121094 32.429688 24.050781 32.429688 C 23.863281 32.316406 23.660156 32.238281 23.445312 32.191406 C 23.292969 32.160156 23.136719 32.214844 23.03125 32.332031 C 22.976562 32.324219 22.917969 32.324219 22.859375 32.332031 C 22.792969 32.351562 22.734375 32.390625 22.6875 32.445312 C 22.714844 32.488281 22.75 32.527344 22.792969 32.558594 C 22.839844 32.597656 22.902344 32.617188 22.964844 32.617188 C 23.011719 32.785156 23.167969 32.898438 23.339844 32.886719 C 23.539062 32.886719 23.738281 32.863281 23.933594 32.820312 C 24.046875 32.820312 24.089844 32.820312 24.113281 32.878906 C 24.136719 32.941406 24.113281 32.992188 23.960938 33.058594 C 23.808594 33.132812 23.664062 33.226562 23.535156 33.335938 C 23.210938 33.636719 23.363281 33.816406 23.363281 33.816406 C 23.328125 33.855469 23.296875 33.898438 23.28125 33.945312 C 23.257812 34.011719 23.257812 34.085938 23.28125 34.15625 C 23.398438 34.136719 23.503906 34.074219 23.574219 33.976562 C 23.6875 34.015625 23.816406 33.980469 23.894531 33.886719 C 24.050781 33.726562 24.171875 33.539062 24.246094 33.328125 C 24.292969 33.234375 24.359375 33.210938 24.425781 33.238281 C 24.496094 33.269531 24.523438 33.335938 24.472656 33.457031 C 24.390625 33.632812 24.355469 33.828125 24.375 34.019531 C 24.378906 34.144531 24.453125 34.257812 24.570312 34.304688 C 24.566406 34.351562 24.566406 34.394531 24.570312 34.441406 C 24.585938 34.5 24.613281 34.558594 24.652344 34.605469 C 24.699219 34.5625 24.738281 34.515625 24.773438 34.460938 C 24.804688 34.417969 24.824219 34.367188 24.832031 34.3125 C 24.9375 34.265625 25.015625 34.179688 25.058594 34.074219 C 25.113281 33.824219 25.113281 33.570312 25.058594 33.324219 C 25.40625 33.664062 25.796875 33.960938 26.21875 34.199219 L 26.265625 34.199219 C 26.304688 34.597656 26.449219 34.980469 26.683594 35.300781 C 26.902344 35.554688 27.15625 35.777344 27.433594 35.960938 C 27.554688 36.050781 27.660156 36.089844 27.59375 36.472656 C 27.519531 36.808594 27.378906 37.128906 27.179688 37.410156 C 26.871094 37.753906 26.519531 38.050781 26.128906 38.300781 C 25.738281 38.160156 25.316406 38.109375 24.898438 38.160156 C 24.761719 38.175781 24.648438 38.269531 24.609375 38.398438 C 24.558594 38.394531 24.507812 38.394531 24.457031 38.398438 C 24.40625 38.425781 24.363281 38.460938 24.328125 38.503906 C 24.367188 38.550781 24.417969 38.585938 24.472656 38.609375 C 24.519531 38.617188 24.566406 38.617188 24.613281 38.609375 C 24.648438 38.726562 24.742188 38.8125 24.863281 38.828125 C 25.109375 38.878906 25.367188 38.878906 25.613281 38.828125 C 25.710938 38.828125 25.785156 38.828125 25.808594 38.894531 C 25.828125 38.960938 25.761719 39.039062 25.695312 39.074219 C 25.5 39.175781 25.320312 39.304688 25.164062 39.457031 C 25.058594 39.570312 25.015625 39.730469 25.058594 39.878906 C 25.023438 39.925781 24.992188 39.976562 24.976562 40.035156 C 24.957031 40.105469 24.957031 40.175781 24.976562 40.246094 C 25.023438 40.253906 25.074219 40.253906 25.125 40.246094 C 25.183594 40.222656 25.234375 40.183594 25.265625 40.132812 C 25.429688 40.183594 25.609375 40.117188 25.695312 39.96875 C 25.800781 39.800781 25.890625 39.621094 25.957031 39.433594 C 25.957031 39.324219 26.039062 39.300781 26.101562 39.316406 C 26.160156 39.328125 26.199219 39.367188 26.167969 39.539062 C 26.144531 39.710938 26.144531 39.878906 26.167969 40.050781 C 26.25 40.484375 26.484375 40.453125 26.484375 40.453125 C 26.496094 40.503906 26.519531 40.550781 26.550781 40.589844 C 26.59375 40.644531 26.65625 40.6875 26.722656 40.710938 C 26.769531 40.601562 26.769531 40.476562 26.722656 40.363281 C 26.816406 40.289062 26.855469 40.164062 26.820312 40.050781 C 26.773438 39.832031 26.679688 39.625 26.542969 39.449219 C 26.484375 39.359375 26.542969 39.285156 26.542969 39.246094 C 26.542969 39.210938 26.675781 39.246094 26.753906 39.324219 C 26.855469 39.488281 27 39.621094 27.171875 39.710938 C 27.277344 39.78125 27.414062 39.78125 27.515625 39.710938 C 27.554688 39.734375 27.597656 39.757812 27.636719 39.773438 C 27.699219 39.785156 27.761719 39.785156 27.824219 39.773438 C 27.816406 39.710938 27.796875 39.648438 27.773438 39.59375 C 27.75 39.542969 27.71875 39.5 27.675781 39.464844 C 27.6875 39.355469 27.660156 39.242188 27.601562 39.148438 C 27.429688 38.972656 27.226562 38.832031 27 38.738281 C 27.417969 38.480469 27.777344 38.140625 28.058594 37.738281 C 28.402344 37.296875 28.640625 36.621094 28.808594 36.480469 C 29.167969 36.113281 29.671875 36.203125 30.308594 36.046875 C 32.414062 35.527344 31.925781 35.0625 32.558594 35.175781 C 32.917969 35.242188 32.863281 36.046875 33.128906 36.578125 C 33.390625 37.109375 33.9375 36.878906 34.011719 37.328125 C 34.050781 37.835938 33.976562 38.351562 33.796875 38.828125 C 33.433594 38.699219 33.046875 38.648438 32.664062 38.683594 C 32.40625 38.683594 32.390625 38.917969 32.390625 38.917969 C 32.339844 38.910156 32.289062 38.910156 32.234375 38.917969 C 32.183594 38.941406 32.140625 38.976562 32.109375 39.023438 C 32.144531 39.066406 32.195312 39.105469 32.25 39.128906 C 32.296875 39.136719 32.34375 39.136719 32.390625 39.128906 C 32.425781 39.242188 32.523438 39.328125 32.640625 39.34375 C 32.886719 39.398438 33.144531 39.398438 33.390625 39.34375 C 33.488281 39.34375 33.5625 39.34375 33.585938 39.414062 C 33.609375 39.480469 33.539062 39.554688 33.472656 39.59375 C 33.277344 39.691406 33.097656 39.820312 32.941406 39.976562 C 32.835938 40.085938 32.792969 40.246094 32.835938 40.394531 C 32.796875 40.441406 32.769531 40.496094 32.753906 40.550781 C 32.734375 40.617188 32.734375 40.6875 32.753906 40.753906 C 32.800781 40.765625 32.851562 40.765625 32.902344 40.753906 C 32.960938 40.734375 33.011719 40.695312 33.046875 40.640625 C 33.207031 40.695312 33.386719 40.625 33.472656 40.476562 C 33.578125 40.308594 33.667969 40.132812 33.734375 39.945312 C 33.734375 39.832031 33.816406 39.808594 33.886719 39.824219 C 33.953125 39.839844 33.984375 39.878906 33.953125 40.050781 C 33.929688 40.21875 33.929688 40.390625 33.953125 40.558594 C 34.027344 40.988281 34.265625 40.964844 34.265625 40.964844 C 34.28125 41.015625 34.304688 41.058594 34.335938 41.101562 C 34.378906 41.15625 34.4375 41.199219 34.507812 41.21875 C 34.539062 41.152344 34.550781 41.078125 34.546875 41.003906 C 34.550781 40.960938 34.550781 40.921875 34.546875 40.882812 C 34.640625 40.808594 34.679688 40.683594 34.640625 40.566406 C 34.597656 40.347656 34.5 40.144531 34.363281 39.96875 C 34.304688 39.878906 34.363281 39.800781 34.363281 39.765625 C 34.363281 39.726562 34.5 39.765625 34.574219 39.839844 C 34.675781 40.003906 34.820312 40.140625 34.996094 40.230469 C 35.097656 40.300781 35.234375 40.300781 35.339844 40.230469 C 35.378906 40.253906 35.417969 40.273438 35.460938 40.289062 C 35.523438 40.304688 35.585938 40.304688 35.648438 40.289062 C 35.589844 40.222656 35.523438 40.164062 35.445312 40.117188 Z M 28.792969 29.300781 C 28.582031 29.453125 28.214844 28.964844 28.214844 28.964844 C 28.386719 28.808594 28.566406 28.671875 28.738281 28.859375 C 28.914062 29.046875 28.964844 29.183594 28.792969 29.300781 Z M 28.792969 29.300781 "/>
<path fill-rule="evenodd" fill="rgb(100%, 100%, 100%)" fill-opacity="1" d="M 25.890625 30.449219 C 26.351562 30.609375 26.863281 30.523438 27.246094 30.226562 C 26.316406 30.359375 25.972656 30.097656 26.191406 29.640625 C 25.5 29.722656 25.558594 30.316406 25.890625 30.449219 Z M 25.890625 30.449219 "/>
<path fill-rule="nonzero" fill="rgb(100%, 100%, 100%)" fill-opacity="1" d="M 45.871094 18.832031 C 45.871094 18.554688 45.652344 18.414062 44.675781 18.609375 C 43.507812 18.773438 42.90625 18.308594 43.253906 17.78125 C 42.871094 17.753906 42.546875 18.0625 42.558594 18.445312 C 42.570312 18.828125 42.910156 19.117188 43.289062 19.066406 C 44.25 19.09375 44.820312 18.683594 45.871094 18.832031 Z M 45.871094 18.832031 "/>
<path fill-rule="nonzero" fill="rgb(100%, 100%, 100%)" fill-opacity="1" d="M 47.144531 30.050781 L 46.5 29.84375 C 45.871094 30.550781 45.070312 31.082031 44.175781 31.386719 C 42.914062 31.824219 42.34375 32.191406 42.058594 32.671875 C 41.855469 32.996094 41.726562 33.367188 41.675781 33.75 C 41.652344 34.097656 41.667969 34.445312 41.730469 34.785156 C 41.730469 35.085938 42.160156 35.136719 42.234375 34.84375 C 42.269531 34.664062 42.390625 34.460938 42.570312 34.441406 C 42.75 34.417969 42.921875 34.621094 42.921875 34.621094 C 42.769531 35.152344 42.511719 35.648438 42.171875 36.082031 C 41.800781 36.535156 41.375 36.945312 40.90625 37.296875 C 40.554688 37.128906 40.183594 37 39.800781 36.921875 C 39.609375 36.921875 39.300781 36.921875 39.203125 37.035156 C 39.0625 37.035156 38.925781 37.089844 38.820312 37.183594 C 38.902344 37.277344 39.011719 37.347656 39.128906 37.386719 C 39.128906 37.628906 39.390625 37.738281 39.652344 37.761719 C 39.859375 37.78125 40.066406 37.78125 40.273438 37.761719 C 40.371094 37.742188 40.460938 37.804688 40.484375 37.898438 C 40.503906 38.003906 40.421875 38.101562 40.3125 38.101562 C 39.621094 38.199219 39.375 38.542969 39.398438 38.917969 C 39.285156 39.039062 39.226562 39.195312 39.234375 39.359375 C 39.390625 39.359375 39.539062 39.308594 39.667969 39.21875 C 40.117188 39.277344 40.417969 38.804688 40.566406 38.558594 C 40.636719 38.429688 40.695312 38.371094 40.792969 38.414062 C 40.890625 38.460938 40.898438 38.535156 40.84375 38.671875 C 40.769531 38.863281 40.722656 39.0625 40.710938 39.269531 C 40.679688 39.507812 40.800781 39.738281 41.011719 39.847656 C 41.011719 39.847656 41.121094 40.125 41.257812 40.183594 C 41.3125 40.070312 41.339844 39.945312 41.332031 39.816406 C 41.503906 39.671875 41.582031 39.445312 41.535156 39.226562 C 41.488281 39.035156 41.417969 38.851562 41.324219 38.675781 C 41.273438 38.566406 41.324219 38.476562 41.371094 38.445312 C 41.414062 38.414062 41.542969 38.445312 41.609375 38.609375 C 41.675781 38.761719 41.765625 38.902344 41.871094 39.03125 C 41.992188 39.148438 42.269531 39.316406 42.464844 39.195312 C 42.570312 39.261719 42.699219 39.296875 42.824219 39.292969 C 42.820312 39.15625 42.765625 39.027344 42.675781 38.925781 C 42.75 38.703125 42.675781 38.457031 42.488281 38.316406 C 42.257812 38.113281 42.007812 37.933594 41.738281 37.785156 C 42.351562 37.523438 42.902344 37.136719 43.359375 36.652344 C 43.566406 36.386719 43.75 36.097656 43.90625 35.796875 C 44.136719 35.851562 44.199219 36.105469 44.210938 36.269531 C 44.226562 36.433594 44.503906 36.472656 44.574219 36.226562 C 44.648438 35.960938 44.683594 35.683594 44.675781 35.40625 C 44.679688 35.046875 44.597656 34.691406 44.445312 34.363281 C 44.496094 34.253906 44.578125 34.15625 44.683594 34.164062 C 44.789062 34.171875 44.96875 34.371094 45.015625 34.46875 C 45.117188 34.777344 45.574219 34.6875 45.554688 34.363281 C 45.554688 34.097656 45.523438 33.828125 45.457031 33.570312 C 45.382812 33.339844 45.253906 33.128906 45.082031 32.953125 C 45.171875 32.371094 45.554688 32.355469 46.320312 31.738281 C 46.679688 31.46875 47.007812 31.152344 47.296875 30.800781 C 47.417969 30.664062 47.488281 30.484375 47.496094 30.300781 C 47.511719 30.171875 47.316406 30.113281 47.144531 30.050781 Z M 47.144531 30.050781 "/>
<path fill-rule="nonzero" fill="rgb(100%, 100%, 100%)" fill-opacity="1" d="M 51.75 28.859375 C 51.574219 29.542969 51.054688 30.082031 50.378906 30.285156 C 50.378906 31.582031 49.628906 32.210938 49.628906 32.664062 C 49.628906 32.992188 49.921875 33.097656 50.257812 33.546875 C 50.578125 34.050781 50.703125 34.660156 50.609375 35.25 C 50.5625 35.578125 50.453125 35.894531 50.289062 36.179688 C 50.121094 36.480469 49.769531 36.359375 49.785156 36.128906 C 49.84375 35.488281 49.386719 35.714844 49.386719 35.714844 C 49.359375 36.269531 49.207031 36.8125 48.9375 37.296875 C 48.640625 37.761719 48.28125 38.1875 47.871094 38.558594 C 48.152344 38.601562 48.433594 38.664062 48.703125 38.746094 C 48.9375 38.832031 49.089844 39.058594 49.085938 39.308594 C 49.210938 39.382812 49.300781 39.496094 49.351562 39.628906 C 49.226562 39.660156 49.097656 39.660156 48.976562 39.628906 C 48.976562 39.628906 48.75 39.832031 48.335938 39.59375 C 48.207031 39.507812 48.09375 39.402344 47.992188 39.285156 C 47.886719 39.164062 47.789062 39.15625 47.714844 39.226562 C 47.640625 39.292969 47.648438 39.375 47.714844 39.472656 C 47.84375 39.617188 47.964844 39.773438 48.066406 39.9375 C 48.148438 40.09375 48.195312 40.449219 48.066406 40.574219 C 48.117188 40.703125 48.136719 40.84375 48.121094 40.980469 C 47.96875 40.980469 47.765625 40.710938 47.765625 40.710938 C 47.546875 40.65625 47.378906 40.480469 47.332031 40.261719 C 47.300781 40.046875 47.300781 39.828125 47.332031 39.613281 C 47.332031 39.449219 47.296875 39.367188 47.191406 39.359375 C 47.085938 39.351562 47.015625 39.433594 47.003906 39.554688 C 47.003906 39.886719 46.738281 40.410156 46.253906 40.484375 C 46.171875 40.605469 46.046875 40.695312 45.90625 40.738281 C 45.84375 40.589844 45.84375 40.417969 45.90625 40.265625 C 45.78125 39.921875 45.90625 39.570312 46.539062 39.21875 C 46.625 39.175781 46.664062 39.070312 46.621094 38.984375 C 46.582031 38.917969 46.5 38.894531 46.394531 38.933594 C 46.203125 38.992188 46.007812 39.042969 45.808594 39.082031 C 45.546875 39.136719 45.300781 39.082031 45.195312 38.878906 C 45.070312 38.875 44.949219 38.839844 44.84375 38.773438 C 44.914062 38.652344 45.023438 38.5625 45.15625 38.519531 C 45.203125 38.347656 45.472656 38.21875 45.667969 38.199219 C 46.082031 38.171875 46.5 38.195312 46.914062 38.265625 C 47.175781 37.992188 47.410156 37.691406 47.609375 37.363281 C 47.878906 36.910156 48.007812 36.390625 47.984375 35.863281 C 47.929688 35.789062 47.839844 35.738281 47.746094 35.730469 C 47.578125 35.730469 47.460938 35.886719 47.386719 35.960938 C 47.257812 36.105469 47.023438 35.984375 47.0625 35.796875 C 47.066406 35.558594 47.109375 35.324219 47.191406 35.101562 C 47.273438 34.878906 47.386719 34.671875 47.527344 34.484375 C 47.445312 34.371094 47.289062 34.265625 47.191406 34.296875 C 47.058594 34.339844 46.960938 34.449219 46.925781 34.582031 C 46.84375 34.808594 46.511719 34.761719 46.492188 34.523438 C 46.453125 34.265625 46.453125 34.003906 46.5 33.75 C 46.542969 33.019531 46.804688 32.320312 47.25 31.738281 C 47.558594 31.320312 48.277344 30.472656 48.292969 29.953125 C 48.308594 29.4375 46.648438 29.40625 45.421875 28.589844 C 44.839844 28.164062 44.425781 27.554688 44.25 26.859375 C 43.921875 27.238281 43.53125 27.554688 43.09375 27.800781 C 42.617188 28.042969 42.113281 28.226562 41.59375 28.351562 C 41.765625 28.578125 41.898438 28.832031 41.984375 29.101562 C 42.101562 29.324219 42.0625 29.59375 41.886719 29.773438 C 41.90625 29.921875 41.871094 30.074219 41.796875 30.203125 C 41.699219 30.128906 41.621094 30.03125 41.574219 29.917969 C 41.347656 29.917969 41.226562 29.789062 41.167969 29.511719 C 41.132812 29.339844 41.117188 29.164062 41.113281 28.988281 C 41.113281 28.816406 41.0625 28.734375 40.972656 28.734375 C 40.882812 28.734375 40.835938 28.792969 40.828125 28.914062 C 40.820312 29.105469 40.792969 29.300781 40.746094 29.488281 C 40.695312 29.65625 40.546875 29.917969 40.363281 29.917969 C 40.308594 30.050781 40.222656 30.167969 40.109375 30.253906 C 40.054688 30.113281 40.035156 29.960938 40.058594 29.8125 C 39.945312 29.722656 39.878906 29.519531 40.058594 29.167969 C 40.132812 28.992188 40.246094 28.832031 40.386719 28.703125 C 40.5 28.582031 40.546875 28.5 40.46875 28.425781 C 40.394531 28.351562 40.351562 28.378906 40.246094 28.425781 C 40.011719 28.582031 39.433594 28.84375 39.074219 28.574219 C 38.941406 28.597656 38.804688 28.566406 38.691406 28.492188 C 38.753906 28.335938 38.890625 28.222656 39.050781 28.183594 C 39.210938 27.953125 39.546875 27.808594 40.246094 27.90625 C 40.34375 27.90625 40.449219 27.90625 40.476562 27.816406 C 40.507812 27.722656 40.453125 27.621094 40.359375 27.59375 C 40.175781 27.507812 40.003906 27.40625 39.839844 27.292969 C 39.621094 27.140625 39.472656 26.941406 39.5625 26.707031 C 39.480469 26.617188 39.421875 26.503906 39.390625 26.386719 C 39.527344 26.351562 39.671875 26.371094 39.796875 26.4375 C 40.011719 26.371094 40.246094 26.433594 40.402344 26.59375 C 40.65625 26.847656 40.890625 27.121094 41.101562 27.414062 C 41.730469 27.292969 42.304688 26.972656 42.734375 26.496094 C 43.136719 25.917969 43.332031 25.222656 43.289062 24.515625 C 43.304688 24.410156 43.25 24.300781 43.15625 24.246094 C 42.996094 24.179688 42.832031 24.300781 42.734375 24.34375 C 42.566406 24.433594 42.390625 24.246094 42.488281 24.082031 C 42.566406 23.855469 42.691406 23.648438 42.855469 23.476562 C 43.070312 23.238281 43.324219 23.035156 43.605469 22.882812 C 43.28125 22.632812 42.972656 22.363281 42.683594 22.074219 C 42.304688 21.644531 41.996094 21.160156 41.765625 20.640625 C 41.714844 20.804688 41.671875 21.03125 41.609375 21.179688 C 41.484375 21.496094 41.324219 21.554688 41.136719 21.570312 C 41.054688 21.695312 40.933594 21.789062 40.792969 21.839844 C 40.761719 21.710938 40.761719 21.578125 40.792969 21.449219 C 40.613281 21.308594 40.648438 21.089844 40.738281 20.863281 C 40.804688 20.714844 40.898438 20.578125 41.015625 20.46875 C 41.144531 20.339844 41.160156 20.242188 41.085938 20.183594 C 41.011719 20.121094 40.925781 20.136719 40.851562 20.234375 C 40.722656 20.382812 40.578125 20.515625 40.417969 20.625 C 40.222656 20.726562 39.988281 20.726562 39.796875 20.625 C 39.671875 20.679688 39.539062 20.707031 39.40625 20.699219 C 39.40625 20.550781 39.628906 20.355469 39.628906 20.355469 C 39.628906 20.160156 39.683594 20.070312 40.035156 19.890625 C 40.222656 19.800781 40.425781 19.753906 40.636719 19.753906 C 40.824219 19.753906 40.90625 19.679688 40.90625 19.597656 C 40.90625 19.515625 40.824219 19.441406 40.6875 19.441406 C 40.261719 19.472656 39.863281 19.226562 39.703125 18.832031 C 39.585938 18.761719 39.5 18.648438 39.464844 18.515625 C 39.617188 18.457031 39.785156 18.457031 39.9375 18.515625 C 40.273438 18.359375 40.636719 18.515625 41.03125 19.074219 C 41.078125 19.148438 41.175781 19.171875 41.25 19.125 C 41.324219 19.078125 41.347656 18.980469 41.300781 18.90625 C 41.257812 18.796875 41.191406 18.601562 41.113281 18.328125 C 41.039062 18.058594 41.0625 17.828125 41.273438 17.699219 C 41.269531 17.574219 41.296875 17.453125 41.355469 17.339844 C 41.480469 17.402344 41.582031 17.507812 41.632812 17.640625 C 41.8125 17.640625 41.96875 17.933594 42.015625 18.140625 C 42.085938 18.496094 42.085938 18.859375 42.015625 19.214844 C 42.152344 19.628906 42.386719 20.011719 42.691406 20.324219 C 43.238281 20.835938 43.851562 21.277344 44.511719 21.628906 L 44.722656 21.414062 C 44.777344 21.34375 44.777344 21.25 44.722656 21.179688 C 44.640625 21.03125 44.429688 21.03125 44.324219 21.007812 C 44.132812 20.980469 44.101562 20.71875 44.28125 20.648438 C 44.507812 20.5 44.761719 20.394531 45.03125 20.347656 C 45.378906 20.261719 45.746094 20.261719 46.09375 20.347656 C 46.09375 20.347656 46.351562 20.046875 46.230469 19.949219 C 45.808594 19.738281 45.320312 19.691406 44.863281 19.816406 C 44.511719 19.335938 44.820312 19.207031 45.324219 19.191406 C 45.78125 19.179688 46.234375 19.257812 46.664062 19.417969 C 46.976562 19.03125 46.875 18.460938 46.449219 18.210938 C 45.910156 17.929688 45.269531 17.929688 44.730469 18.210938 C 44.503906 18.1875 44.304688 18.042969 44.210938 17.835938 C 44.144531 17.65625 44.128906 17.464844 44.175781 17.28125 C 43.949219 17.121094 43.957031 16.628906 45.414062 16.726562 C 45.324219 16.484375 45.3125 16.222656 45.375 15.976562 C 45.523438 15.539062 47.109375 15.773438 47.476562 15.691406 L 47.835938 15.578125 C 48.007812 15.496094 48.175781 15.699219 48.066406 15.855469 C 47.988281 16.007812 47.929688 16.171875 47.902344 16.34375 C 48.335938 16.480469 48.722656 16.742188 49.011719 17.09375 C 49.242188 17.433594 49.390625 17.820312 49.449219 18.226562 C 49.507812 18.40625 49.292969 18.550781 49.148438 18.425781 C 49.066406 18.359375 48.921875 18.210938 48.757812 18.238281 C 48.59375 18.269531 48.546875 18.425781 48.515625 18.53125 C 48.96875 18.824219 49.273438 19.296875 49.351562 19.828125 C 49.390625 20.101562 49.390625 20.382812 49.351562 20.65625 C 49.351562 20.851562 49.089844 20.917969 48.996094 20.746094 C 48.9375 20.65625 48.855469 20.46875 48.691406 20.4375 C 48.523438 20.40625 48.433594 20.542969 48.367188 20.683594 C 48.539062 21.011719 48.628906 21.378906 48.628906 21.75 C 48.671875 22.023438 48.671875 22.300781 48.628906 22.574219 C 48.617188 22.761719 48.367188 22.816406 48.277344 22.648438 C 48.226562 22.558594 48.148438 22.363281 47.984375 22.335938 C 47.820312 22.304688 47.691406 22.492188 47.625 22.636719 C 47.898438 22.945312 48.078125 23.332031 48.136719 23.746094 C 48.175781 24.019531 48.175781 24.296875 48.136719 24.570312 C 48.136719 24.824219 47.84375 24.808594 47.78125 24.660156 C 47.722656 24.511719 47.664062 24.367188 47.488281 24.335938 C 47.375 24.34375 47.269531 24.398438 47.199219 24.488281 C 47.160156 24.816406 47.1875 25.148438 47.273438 25.46875 C 47.417969 26.089844 47.800781 26.628906 48.335938 26.96875 C 49.25 27.574219 49.945312 28.457031 50.324219 29.484375 C 51.179688 29.246094 51.449219 28.164062 50.804688 27.554688 C 50.054688 26.558594 49.507812 26.242188 49.199219 25.074219 C 49.007812 24.316406 49.203125 23.519531 49.71875 22.933594 C 49.636719 22.800781 49.59375 22.648438 49.589844 22.492188 C 49.5625 22.070312 49.667969 21.652344 49.890625 21.292969 C 50.21875 20.722656 50.710938 20.265625 51.300781 19.980469 C 51.441406 20.105469 51.5 20.300781 51.449219 20.484375 C 51.238281 20.886719 50.445312 21.457031 50.429688 21.699219 C 50.414062 21.9375 50.746094 22.027344 50.859375 21.988281 C 50.96875 21.953125 51.324219 21.328125 51.414062 21.238281 C 51.539062 21.105469 51.765625 21.214844 51.734375 21.398438 C 51.71875 21.671875 51.660156 21.941406 51.5625 22.199219 C 51.332031 22.738281 50.832031 23.109375 50.25 23.175781 C 50.175781 23.1875 50.097656 23.1875 50.023438 23.175781 C 49.691406 23.644531 49.574219 24.234375 49.703125 24.796875 C 49.835938 25.546875 50.347656 25.972656 51.007812 26.828125 C 51.667969 27.683594 51.9375 28.019531 51.75 28.859375 Z M 45.914062 16.824219 C 45.914062 16.824219 46.335938 17.503906 46.664062 17.296875 C 46.996094 17.085938 46.777344 16.882812 46.621094 16.703125 C 46.460938 16.523438 46.15625 16.621094 45.921875 16.824219 Z M 45.914062 16.824219 "/>
<path fill-rule="nonzero" fill="rgb(100%, 100%, 100%)" fill-opacity="1" d="M 40.042969 12 C 39.816406 11.648438 39.511719 11.308594 39.292969 10.941406 C 39.074219 10.574219 39.058594 10.027344 39.546875 9.929688 C 39.730469 9.90625 39.914062 9.976562 40.042969 10.109375 L 40.09375 10.109375 C 40.222656 9.976562 40.40625 9.90625 40.589844 9.929688 C 41.078125 10.027344 41.121094 10.539062 40.84375 10.941406 C 40.566406 11.347656 40.289062 11.648438 40.09375 12 Z M 40.042969 12 "/>
<path fill-rule="nonzero" fill="rgb(100%, 100%, 100%)" fill-opacity="1" d="M 40.042969 45.59375 C 39.816406 45.238281 39.511719 44.902344 39.292969 44.535156 C 39.074219 44.167969 39 43.621094 39.515625 43.5 C 39.703125 43.476562 39.886719 43.542969 40.011719 43.679688 L 40.066406 43.679688 C 40.191406 43.542969 40.375 43.476562 40.558594 43.5 C 41.046875 43.597656 41.09375 44.109375 40.816406 44.511719 C 40.539062 44.917969 40.261719 45.21875 40.066406 45.570312 Z M 40.042969 45.59375 "/>
<path fill-rule="nonzero" fill="rgb(100%, 100%, 100%)" fill-opacity="1" d="M 43.621094 43.941406 C 43.394531 43.589844 43.085938 43.253906 42.871094 42.886719 C 42.652344 42.515625 42.636719 41.96875 43.125 41.871094 C 43.308594 41.851562 43.492188 41.917969 43.621094 42.050781 L 43.664062 42.050781 C 43.792969 41.917969 43.976562 41.851562 44.160156 41.871094 C 44.648438 41.96875 44.691406 42.480469 44.414062 42.886719 C 44.136719 43.289062 43.859375 43.589844 43.664062 43.941406 Z M 43.621094 43.941406 "/>
<path fill-rule="nonzero" fill="rgb(100%, 100%, 100%)" fill-opacity="1" d="M 40.042969 25.078125 C 39.816406 24.726562 39.511719 24.390625 39.292969 24.023438 C 39.074219 23.65625 39.058594 23.109375 39.546875 23.011719 C 39.730469 22.988281 39.914062 23.054688 40.042969 23.191406 L 40.09375 23.191406 C 40.222656 23.054688 40.40625 22.988281 40.589844 23.011719 C 41.078125 23.109375 41.121094 23.617188 40.84375 24.023438 C 40.566406 24.425781 40.289062 24.726562 40.09375 25.078125 Z M 40.042969 25.078125 "/>
<path fill-rule="nonzero" fill="rgb(100%, 100%, 100%)" fill-opacity="1" d="M 43.621094 13.90625 C 43.394531 13.550781 43.085938 13.214844 42.871094 12.847656 C 42.652344 12.480469 42.636719 11.933594 43.125 11.835938 C 43.308594 11.8125 43.492188 11.878906 43.621094 12.015625 L 43.671875 12.015625 C 43.800781 11.878906 43.984375 11.8125 44.167969 11.835938 C 44.65625 11.933594 44.699219 12.441406 44.421875 12.847656 C 44.144531 13.253906 43.867188 13.550781 43.671875 13.90625 Z M 43.621094 13.90625 "/>
<path fill-rule="nonzero" fill="rgb(100%, 100%, 100%)" fill-opacity="1" d="M 43.875 30.890625 C 43.648438 30.539062 43.34375 30.203125 43.125 29.835938 C 42.90625 29.46875 42.890625 28.921875 43.378906 28.824219 C 43.5625 28.800781 43.746094 28.867188 43.875 29.003906 L 43.925781 29.003906 C 44.054688 28.867188 44.238281 28.800781 44.421875 28.824219 C 44.910156 28.921875 44.953125 29.429688 44.675781 29.835938 C 44.398438 30.238281 44.121094 30.539062 43.925781 30.890625 Z M 43.875 30.890625 "/>
<path fill-rule="nonzero" fill="rgb(100%, 100%, 100%)" fill-opacity="1" d="M 37.050781 9.683594 C 37.148438 9.691406 37.246094 9.707031 37.34375 9.734375 L 37.34375 45.609375 C 37.25 45.644531 37.148438 45.667969 37.050781 45.675781 C 36.949219 45.660156 36.851562 45.640625 36.757812 45.609375 L 36.757812 9.75 C 36.851562 9.71875 36.949219 9.695312 37.050781 9.683594 Z M 37.050781 9.683594 "/>
<path fill-rule="nonzero" fill="rgb(100%, 100%, 100%)" fill-opacity="1" d="M 18 36.511719 C 17.894531 36.1875 17.8125 35.871094 17.707031 35.550781 L 17.378906 34.558594 L 17.675781 34.460938 L 17.894531 34.996094 L 20.144531 34.246094 L 19.941406 33.660156 L 20.257812 33.5625 C 20.496094 34.164062 20.730469 34.769531 20.925781 35.386719 C 21.121094 36 20.984375 36.621094 20.519531 36.765625 C 20.21875 36.839844 19.902344 36.71875 19.726562 36.464844 C 19.785156 36.859375 19.5625 37.246094 19.191406 37.394531 C 18.59375 37.621094 18.15625 37.027344 18 36.511719 Z M 19.328125 35.828125 L 19.222656 35.488281 L 18.351562 35.765625 C 18.179688 35.820312 18.179688 35.894531 18.261719 36.136719 C 18.324219 36.453125 18.65625 36.636719 18.960938 36.523438 C 19.253906 36.433594 19.410156 36.117188 19.3125 35.828125 Z M 20.574219 35.453125 L 20.453125 35.101562 L 19.566406 35.378906 L 19.65625 35.671875 C 19.75 35.902344 20.019531 36.011719 20.25 35.910156 C 20.460938 35.851562 20.640625 35.707031 20.558594 35.453125 Z M 20.574219 35.453125 "/>
<path fill-rule="nonzero" fill="rgb(100%, 100%, 100%)" fill-opacity="1" d="M 20.199219 42.140625 L 20.015625 41.59375 C 19.851562 41.121094 20.617188 40.148438 20.84375 39.765625 L 20.773438 39.628906 L 19.890625 40.09375 L 20.023438 40.453125 L 19.738281 40.605469 L 19.363281 39.855469 L 18.914062 39 L 19.199219 38.851562 L 19.484375 39.285156 L 21.609375 38.167969 L 21.300781 37.628906 L 21.59375 37.46875 C 21.765625 37.753906 21.976562 38.113281 22.109375 38.324219 C 22.15625 38.398438 22.402344 38.8125 22.484375 38.96875 C 22.988281 39.921875 22.824219 40.371094 22.34375 40.621094 C 21.988281 40.871094 21.496094 40.769531 21.269531 40.402344 C 21.203125 40.523438 20.453125 41.640625 20.460938 41.730469 C 20.457031 41.839844 20.480469 41.945312 20.519531 42.046875 Z M 22.109375 39.140625 L 22.027344 39 L 21 39.523438 L 21.066406 39.660156 C 21.222656 39.953125 21.59375 40.050781 21.871094 39.871094 C 22.15625 39.742188 22.265625 39.398438 22.109375 39.128906 Z M 22.109375 39.140625 "/>
<path fill-rule="nonzero" fill="rgb(100%, 100%, 100%)" fill-opacity="1" d="M 22.816406 45 L 22.171875 44.25 L 22.417969 44.054688 L 22.726562 44.386719 L 23.121094 43.71875 L 22.5 42.90625 L 21.75 43.132812 L 22.066406 43.589844 L 21.816406 43.785156 L 21.382812 43.214844 L 21 42.789062 L 21.238281 42.59375 L 21.457031 42.789062 L 24.300781 42 C 24.457031 42.09375 24.628906 42.160156 24.808594 42.195312 L 24.890625 42.300781 L 23.289062 45.105469 L 23.453125 45.382812 L 23.203125 45.578125 Z M 23.859375 42.480469 L 22.882812 42.773438 L 23.316406 43.320312 Z M 23.859375 42.480469 "/>
<path fill-rule="nonzero" fill="rgb(100%, 100%, 100%)" fill-opacity="1" d="M 28.15625 46.222656 L 27.097656 47.484375 C 26.609375 48.066406 25.941406 48.058594 25.238281 47.484375 C 24.53125 46.90625 24.359375 46.175781 24.765625 45.699219 L 25.890625 44.347656 L 25.5 43.972656 L 25.703125 43.734375 L 26.414062 44.339844 L 27.164062 44.976562 L 26.960938 45.21875 L 26.535156 44.910156 L 25.5 46.148438 C 25.199219 46.441406 25.226562 46.933594 25.550781 47.199219 C 25.875 47.511719 26.390625 47.511719 26.714844 47.199219 L 27.757812 45.945312 L 27.398438 45.59375 L 27.601562 45.351562 L 28.132812 45.800781 L 28.71875 46.28125 L 28.515625 46.523438 Z M 28.15625 46.222656 "/>
<path fill-rule="nonzero" fill="rgb(100%, 100%, 100%)" fill-opacity="1" d="M 32.25 48.328125 L 31.109375 50.894531 L 30.613281 50.675781 L 29.863281 47.910156 L 29.113281 49.574219 L 29.535156 49.808594 L 29.40625 50.101562 L 28.800781 49.808594 L 28.125 49.5 L 28.253906 49.207031 L 28.710938 49.363281 L 29.65625 47.25 C 29.65625 47.128906 29.476562 47.039062 29.191406 46.914062 L 29.324219 46.613281 L 30.503906 47.136719 L 31.207031 49.640625 L 31.875 48.140625 L 31.449219 47.910156 L 31.574219 47.617188 L 32.191406 47.894531 L 32.871094 48.195312 L 32.746094 48.488281 Z M 32.25 48.328125 "/>
<path fill-rule="nonzero" fill="rgb(100%, 100%, 100%)" fill-opacity="1" d="M 34.449219 51.710938 C 34.164062 51.664062 33.886719 51.578125 33.621094 51.457031 L 33.621094 51.554688 L 33.292969 51.503906 L 33.359375 51.285156 L 33.511719 50.535156 L 33.824219 50.585938 C 33.761719 50.941406 34 51.28125 34.359375 51.335938 C 34.703125 51.390625 34.890625 51.234375 34.925781 50.984375 C 34.964844 50.738281 34.515625 50.4375 34.175781 50.085938 C 33.875 49.859375 33.707031 49.496094 33.726562 49.117188 C 33.808594 48.578125 34.296875 48.328125 35.003906 48.433594 C 35.257812 48.480469 35.507812 48.539062 35.753906 48.613281 L 35.820312 48.488281 L 36.113281 48.53125 L 35.878906 49.5 L 35.566406 49.5 C 35.617188 49.179688 35.390625 48.882812 35.070312 48.847656 C 34.835938 48.792969 34.605469 48.953125 34.574219 49.191406 C 34.53125 49.46875 34.890625 49.710938 35.226562 50.015625 C 35.5625 50.234375 35.773438 50.601562 35.789062 51 C 35.699219 51.613281 35.167969 51.824219 34.449219 51.710938 Z M 34.449219 51.710938 "/>
<path fill-rule="nonzero" fill="rgb(100%, 100%, 100%)" fill-opacity="1" d="M 38.902344 51.816406 C 37.957031 52 37.054688 51.332031 36.953125 50.375 C 36.847656 49.414062 37.585938 48.570312 38.550781 48.546875 C 38.867188 48.515625 39.1875 48.515625 39.503906 48.546875 L 39.503906 48.421875 L 39.808594 48.421875 L 39.808594 48.710938 L 39.898438 49.460938 L 39.59375 49.460938 C 39.511719 48.988281 39.097656 48.871094 38.640625 48.914062 C 38.058594 49.074219 37.707031 49.664062 37.84375 50.25 C 37.914062 51 38.46875 51.503906 38.96875 51.457031 C 39.230469 51.449219 39.488281 51.382812 39.71875 51.261719 C 39.734375 51.058594 39.734375 50.855469 39.71875 50.65625 L 40.027344 50.65625 L 40.101562 51.503906 C 39.726562 51.683594 39.320312 51.789062 38.902344 51.816406 Z M 38.902344 51.816406 "/>
<path fill-rule="nonzero" fill="rgb(100%, 100%, 100%)" fill-opacity="1" d="M 45 49.996094 L 44.09375 50.386719 L 43.972656 50.09375 L 44.445312 49.851562 L 44.054688 48.898438 L 42.652344 49.5 L 43.042969 50.453125 L 43.539062 50.296875 L 43.65625 50.585938 L 42.75 50.910156 L 41.859375 51.292969 L 41.765625 51 L 42.234375 50.761719 L 41.308594 48.511719 L 40.816406 48.675781 L 40.695312 48.382812 L 41.59375 48.023438 L 42.464844 47.648438 L 42.585938 47.941406 L 42.121094 48.171875 L 42.503906 49.101562 L 43.898438 48.523438 L 43.5 47.625 L 42.996094 47.789062 L 42.878906 47.496094 L 43.753906 47.152344 L 44.65625 46.761719 L 44.773438 47.054688 L 44.300781 47.296875 L 45.226562 49.546875 L 45.726562 49.386719 L 45.847656 49.679688 Z M 45 49.996094 "/>
<path fill-rule="nonzero" fill="rgb(100%, 100%, 100%)" fill-opacity="1" d="M 49.066406 43.621094 L 50.0625 46.5 L 49.695312 46.816406 L 48.375 46.164062 L 48.847656 47.550781 L 48.449219 47.894531 L 45.691406 46.5 L 45.421875 46.679688 L 45.21875 46.5 L 45.765625 46.050781 L 46.328125 45.539062 L 46.5 45.75 L 46.335938 45.9375 L 48.195312 46.898438 L 47.820312 45.914062 L 46.90625 45.457031 L 46.695312 45.59375 L 46.5 45.351562 L 46.988281 44.949219 L 47.640625 44.363281 L 47.851562 44.601562 L 47.574219 44.886719 L 49.425781 45.847656 L 48.675781 43.921875 L 48.335938 44.160156 L 48.128906 43.921875 L 48.636719 43.5 L 49.019531 43.132812 L 49.238281 43.378906 Z M 49.066406 43.621094 "/>
<path fill-rule="nonzero" fill="rgb(100%, 100%, 100%)" fill-opacity="1" d="M 52.738281 43.238281 L 52.476562 43.597656 L 51.890625 44.445312 L 51.636719 44.25 L 51.929688 43.761719 L 49.957031 42.375 L 49.613281 42.765625 L 49.359375 42.585938 L 49.941406 41.796875 L 50.316406 41.242188 L 50.738281 40.648438 L 50.617188 40.5 L 50.804688 40.238281 L 51.007812 40.386719 L 51.644531 40.816406 L 51.464844 41.070312 L 51 40.898438 L 50.453125 41.648438 L 51.246094 42.210938 L 51.660156 41.632812 L 51.398438 41.390625 L 51.578125 41.136719 L 52.476562 41.773438 L 52.296875 42.03125 L 51.96875 41.851562 L 51.554688 42.425781 L 52.304688 42.960938 L 52.394531 43.019531 C 52.460938 42.949219 52.519531 42.875 52.574219 42.796875 L 52.898438 42.351562 C 52.949219 42.285156 52.996094 42.210938 53.03125 42.136719 C 53.03125 42.136719 52.738281 41.859375 52.679688 41.804688 L 52.867188 41.542969 L 53.550781 42.03125 Z M 52.738281 43.238281 "/>
<path fill-rule="nonzero" fill="rgb(100%, 100%, 100%)" fill-opacity="1" d="M 54.75 39.847656 L 54.328125 40.71875 L 54.046875 40.574219 L 54.234375 40.085938 L 52.085938 39 L 51.824219 39.449219 L 51.539062 39.308594 L 51.984375 38.445312 L 52.386719 37.589844 L 52.671875 37.734375 L 52.5 38.25 L 54.660156 39.316406 L 54.929688 38.871094 L 55.214844 39.015625 Z M 54.75 39.847656 "/>
<path fill-rule="nonzero" fill="rgb(100%, 100%, 100%)" fill-opacity="1" d="M 55.636719 34.371094 L 55.996094 34.492188 L 56.109375 34.492188 C 56.296875 34.558594 56.503906 34.574219 56.699219 34.539062 C 56.621094 34.757812 56.570312 34.980469 56.542969 35.210938 C 56.507812 35.507812 56.445312 35.800781 56.355469 36.082031 C 55.949219 37.371094 55.019531 37.65625 54.203125 37.402344 C 53.273438 37.09375 52.808594 36.050781 53.199219 35.152344 C 53.300781 34.832031 53.429688 34.519531 53.578125 34.214844 L 53.453125 34.132812 L 53.542969 33.855469 L 53.746094 33.921875 L 54.554688 34.148438 L 54.464844 34.449219 C 54 34.371094 53.714844 34.695312 53.566406 35.199219 C 53.515625 36.554688 55.296875 37.097656 56.015625 35.949219 C 56.082031 35.765625 56.101562 35.574219 56.078125 35.386719 L 55.378906 35.167969 L 55.175781 35.664062 L 54.878906 35.566406 L 55.183594 34.628906 L 55.433594 33.800781 L 55.734375 33.898438 Z M 55.636719 34.371094 "/>
<path fill-rule="nonzero" fill="rgb(100%, 100%, 100%)" fill-opacity="1" d="M 19.851562 28.078125 C 19.972656 29.039062 19.246094 29.898438 18.28125 29.9375 C 17.3125 29.972656 16.519531 29.175781 16.566406 28.207031 C 16.550781 27.890625 16.566406 27.570312 16.613281 27.253906 L 16.492188 27.253906 L 16.492188 26.925781 L 16.785156 26.925781 L 17.535156 26.886719 L 17.535156 27.203125 C 17.054688 27.253906 16.914062 27.652344 16.921875 28.117188 C 16.925781 28.582031 17.4375 29.054688 18.195312 29.039062 C 18.839844 29.085938 19.40625 28.628906 19.5 27.988281 C 19.507812 27.730469 19.457031 27.476562 19.351562 27.238281 C 19.152344 27.199219 18.953125 27.175781 18.75 27.164062 L 18.75 26.851562 L 19.597656 26.851562 C 19.761719 27.238281 19.847656 27.65625 19.851562 28.078125 Z M 19.851562 28.078125 "/>
<path fill-rule="nonzero" fill="rgb(100%, 100%, 100%)" fill-opacity="1" d="M 20.09375 23.296875 L 19.972656 24.316406 L 19.65625 24.277344 L 19.65625 23.828125 L 18.90625 24.007812 L 18.78125 25.019531 L 19.460938 25.394531 L 19.566406 24.847656 L 19.882812 24.886719 L 19.777344 25.597656 L 19.726562 26.167969 L 19.417969 26.128906 L 19.417969 25.835938 L 16.851562 24.335938 C 16.808594 24.15625 16.734375 23.984375 16.636719 23.828125 L 16.636719 23.691406 L 19.761719 22.882812 L 19.84375 22.574219 L 20.160156 22.613281 Z M 17.558594 24.308594 L 18.449219 24.800781 L 18.539062 24.105469 Z M 17.558594 24.308594 "/>
<path fill-rule="nonzero" fill="rgb(100%, 100%, 100%)" fill-opacity="1" d="M 21.644531 18.75 L 21.390625 19.273438 C 21.171875 19.726562 19.941406 19.890625 19.515625 20.023438 L 19.46875 20.167969 L 20.429688 20.453125 L 20.585938 20.101562 L 20.894531 20.191406 L 20.632812 21 L 20.378906 21.914062 L 20.070312 21.824219 L 20.175781 21.316406 L 17.878906 20.625 L 17.722656 21.226562 L 17.40625 21.128906 C 17.484375 20.804688 17.585938 20.378906 17.640625 20.152344 C 17.640625 20.0625 17.773438 19.589844 17.828125 19.402344 C 18.140625 18.367188 18.578125 18.164062 19.085938 18.316406 C 19.515625 18.386719 19.796875 18.804688 19.695312 19.230469 C 19.828125 19.191406 21.148438 18.914062 21.195312 18.847656 C 21.269531 18.769531 21.332031 18.679688 21.367188 18.578125 Z M 18.164062 19.574219 L 18.113281 19.746094 L 19.261719 20.09375 L 19.304688 19.949219 C 19.425781 19.621094 19.222656 19.261719 18.878906 19.199219 C 18.574219 19.074219 18.234375 19.253906 18.164062 19.574219 Z M 18.164062 19.574219 "/>
<path fill-rule="nonzero" fill="rgb(100%, 100%, 100%)" fill-opacity="1" d="M 22.425781 16.589844 C 22.0625 17.488281 21.003906 17.878906 20.144531 17.4375 C 19.28125 16.996094 18.984375 15.910156 19.5 15.089844 C 19.859375 14.203125 20.898438 13.816406 21.75 14.25 C 22.621094 14.675781 22.9375 15.765625 22.425781 16.589844 Z M 19.808594 15.253906 C 19.539062 15.78125 19.996094 16.296875 20.558594 16.597656 C 21.121094 16.898438 21.832031 16.957031 22.101562 16.433594 C 22.371094 15.90625 21.878906 15.382812 21.351562 15.097656 C 20.828125 14.8125 20.070312 14.738281 19.808594 15.253906 Z M 19.808594 15.253906 "/>
<path fill-rule="nonzero" fill="rgb(100%, 100%, 100%)" fill-opacity="1" d="M 25.214844 12.203125 L 24.382812 13.289062 L 24.105469 13.640625 L 23.511719 14.4375 L 23.25 14.25 L 23.527344 13.808594 L 21.613281 12.34375 L 21.269531 12.734375 L 21 12.539062 L 21.609375 11.789062 L 22.171875 11.039062 L 22.425781 11.234375 L 22.140625 11.675781 L 24.082031 13.175781 L 24.539062 12.554688 C 24.597656 12.484375 24.640625 12.40625 24.667969 12.324219 C 24.667969 12.324219 24.375 11.894531 24.328125 11.835938 L 24.523438 11.574219 Z M 25.214844 12.203125 "/>
<path fill-rule="nonzero" fill="rgb(100%, 100%, 100%)" fill-opacity="1" d="M 26.886719 10.71875 C 26.210938 11.347656 25.144531 11.296875 24.53125 10.601562 C 23.917969 9.910156 23.992188 8.847656 24.699219 8.25 C 25.355469 7.550781 26.472656 7.574219 27.105469 8.296875 C 27.761719 9.007812 27.660156 10.132812 26.886719 10.71875 Z M 24.929688 8.527344 C 24.496094 8.917969 24.726562 9.570312 25.15625 10.027344 C 25.582031 10.484375 26.210938 10.824219 26.65625 10.433594 C 27.097656 10.042969 26.828125 9.367188 26.40625 8.933594 C 25.988281 8.496094 25.363281 8.136719 24.929688 8.527344 Z M 24.929688 8.527344 "/>
<path fill-rule="nonzero" fill="rgb(100%, 100%, 100%)" fill-opacity="1" d="M 28.117188 8.191406 L 27.742188 7.566406 L 29.152344 6.75 L 29.527344 7.378906 Z M 28.117188 8.191406 "/>
<path fill-rule="nonzero" fill="rgb(100%, 100%, 100%)" fill-opacity="1" d="M 33.5625 4.027344 L 33.40625 7.085938 L 32.941406 7.246094 L 31.957031 6.148438 L 31.882812 7.648438 L 31.378906 7.824219 L 29.324219 5.484375 L 29.011719 5.550781 L 28.90625 5.25 L 29.578125 5.03125 L 30.328125 4.769531 L 30.433594 5.070312 L 30.210938 5.183594 L 31.550781 6.75 L 31.550781 5.699219 L 30.871094 4.949219 L 30.621094 4.996094 L 30.515625 4.695312 L 31.140625 4.5 L 31.964844 4.199219 L 32.070312 4.5 L 31.703125 4.65625 L 33.074219 6.238281 L 33.128906 4.175781 L 32.722656 4.273438 L 32.617188 3.976562 L 33.253906 3.75 L 33.75 3.578125 L 33.855469 3.890625 Z M 33.5625 4.027344 "/>
<path fill-rule="nonzero" fill="rgb(100%, 100%, 100%)" fill-opacity="1" d="M 36 6.613281 L 35.03125 6.699219 L 35.03125 6.382812 L 35.550781 6.300781 L 35.386719 3.898438 L 34.859375 3.898438 L 34.859375 3.585938 L 35.828125 3.53125 L 36.75 3.449219 L 36.75 3.75 L 36.234375 3.824219 L 36.398438 6.226562 L 36.921875 6.226562 L 36.921875 6.539062 Z M 36 6.613281 "/>
<path fill-rule="nonzero" fill="rgb(100%, 100%, 100%)" fill-opacity="1" d="M 40.671875 6.996094 L 39.316406 6.75 L 38.878906 6.675781 L 37.898438 6.53125 L 37.949219 6.21875 L 38.476562 6.253906 L 38.859375 3.878906 L 38.347656 3.75 L 38.398438 3.433594 L 39.367188 3.609375 L 40.296875 3.75 L 40.246094 4.066406 L 39.75 4.042969 L 39.335938 6.449219 L 40.085938 6.5625 C 40.175781 6.578125 40.261719 6.578125 40.351562 6.5625 C 40.351562 6.5625 40.589844 6.105469 40.621094 6.039062 L 40.941406 6.089844 Z M 40.671875 6.996094 "/>
<path fill-rule="nonzero" fill="rgb(100%, 100%, 100%)" fill-opacity="1" d="M 44.4375 8.574219 L 43.539062 8.152344 L 43.671875 7.867188 L 44.167969 8.054688 L 44.609375 7.125 L 43.238281 6.464844 L 42.796875 7.394531 L 43.246094 7.664062 L 43.109375 7.949219 L 42.261719 7.5 L 41.386719 7.085938 L 41.519531 6.800781 L 42.007812 6.988281 L 43.050781 4.84375 L 42.601562 4.582031 L 42.75 4.296875 L 43.621094 4.734375 L 44.484375 5.136719 L 44.347656 5.421875 L 43.84375 5.25 L 43.410156 6.15625 L 44.78125 6.816406 L 45.21875 5.910156 L 44.761719 5.648438 L 44.894531 5.363281 L 45.75 5.761719 L 46.640625 6.171875 L 46.5 6.457031 L 46.003906 6.261719 L 44.960938 8.429688 L 45.421875 8.699219 L 45.285156 8.984375 Z M 44.4375 8.574219 "/>
<path fill-rule="nonzero" fill="rgb(100%, 100%, 100%)" fill-opacity="1" d="M 46.851562 10.34375 L 46.5 10.050781 L 45.75 9.390625 L 45.953125 9.148438 L 46.417969 9.480469 L 47.976562 7.640625 L 47.609375 7.265625 L 47.8125 7.027344 L 48.5625 7.679688 L 49.078125 8.109375 L 49.636719 8.578125 L 49.769531 8.46875 L 50.015625 8.675781 L 49.851562 8.871094 L 49.371094 9.472656 L 49.132812 9.269531 L 49.363281 8.859375 L 48.613281 8.242188 L 48 9 L 48.539062 9.457031 L 48.800781 9.21875 L 49.042969 9.421875 L 48.292969 10.265625 L 48.050781 10.066406 L 48.261719 9.75 L 47.722656 9.292969 L 47.128906 9.988281 C 47.101562 10.015625 47.082031 10.046875 47.0625 10.078125 C 47.125 10.152344 47.191406 10.21875 47.265625 10.28125 L 47.683594 10.640625 C 47.746094 10.703125 47.8125 10.753906 47.886719 10.800781 C 47.886719 10.800781 48.195312 10.53125 48.246094 10.476562 L 48.496094 10.6875 L 48 11.25 Z M 46.851562 10.34375 "/>
<path fill-rule="nonzero" fill="rgb(100%, 100%, 100%)" fill-opacity="1" d="M 50.25 14.046875 L 49.410156 12.976562 L 49.140625 12.621094 L 48.511719 11.871094 L 48.757812 11.675781 L 49.117188 12.050781 L 51 10.5 L 50.707031 10.066406 L 50.953125 9.871094 L 51.5625 10.621094 L 52.164062 11.371094 L 51.914062 11.566406 L 51.546875 11.25 L 49.640625 12.75 L 50.136719 13.34375 C 50.191406 13.414062 50.257812 13.472656 50.332031 13.523438 L 50.886719 13.3125 L 51.089844 13.566406 Z M 50.25 14.046875 "/>
<path fill-rule="nonzero" fill="rgb(100%, 100%, 100%)" fill-opacity="1" d="M 52.453125 18 L 52.078125 17.25 L 52.363281 17.109375 L 52.566406 17.421875 L 54.367188 16.5 L 51.59375 16.546875 L 53.136719 14.386719 L 51.433594 15.171875 L 51.59375 15.570312 L 51.300781 15.75 L 51.074219 15.277344 L 50.691406 14.527344 L 50.976562 14.386719 L 51.234375 14.804688 L 53.429688 13.792969 L 53.25 13.328125 L 53.535156 13.183594 L 53.902344 13.933594 L 54.140625 14.390625 L 52.882812 16.117188 L 54.984375 16.058594 L 55.164062 16.433594 L 55.664062 17.421875 L 55.378906 17.566406 L 55.101562 17.09375 L 52.949219 18.238281 L 53.160156 18.75 L 52.875 18.890625 Z M 52.453125 18 "/>
<path fill-rule="nonzero" fill="rgb(100%, 100%, 100%)" fill-opacity="1" d="M 53.324219 20.550781 L 53.03125 19.621094 L 53.339844 19.53125 L 53.535156 20.015625 L 55.84375 19.335938 L 55.734375 18.824219 L 56.039062 18.734375 L 56.300781 19.671875 L 56.585938 20.578125 L 56.289062 20.671875 L 56.101562 20.183594 L 53.789062 20.863281 L 53.894531 21.375 L 53.585938 21.464844 Z M 53.324219 20.550781 "/>
<path fill-rule="nonzero" fill="rgb(100%, 100%, 100%)" fill-opacity="1" d="M 57 25.238281 L 54.21875 25.628906 L 54.140625 25.085938 L 56.085938 22.964844 L 54.277344 23.210938 L 54.277344 23.691406 L 53.953125 23.738281 L 53.878906 23.0625 L 53.753906 22.3125 L 54.066406 22.265625 L 54.171875 22.738281 L 56.484375 22.417969 C 56.566406 22.320312 56.566406 22.15625 56.484375 21.839844 L 56.8125 21.796875 L 56.992188 23.078125 L 55.238281 25.003906 L 57 24.75 L 57 24.269531 L 57.316406 24.226562 L 57.40625 24.898438 L 57.515625 25.648438 L 57.203125 25.695312 Z M 57 25.238281 "/>
<path fill-rule="nonzero" fill="rgb(100%, 100%, 100%)" fill-opacity="1" d="M 54.324219 29.398438 L 54.324219 28.378906 L 54.636719 28.378906 L 54.636719 28.828125 L 55.386719 28.574219 L 55.386719 27.546875 L 54.636719 27.246094 L 54.585938 27.800781 L 54.269531 27.800781 L 54.269531 26.476562 L 54.578125 26.476562 L 54.613281 26.761719 L 57.324219 27.953125 C 57.382812 28.125 57.476562 28.289062 57.59375 28.433594 L 57.59375 28.566406 L 54.59375 29.699219 L 54.539062 30.015625 L 54.226562 30.015625 Z M 56.738281 28.132812 L 55.800781 27.75 L 55.800781 28.453125 Z M 56.738281 28.132812 "/>
<path fill-rule="nonzero" fill="rgb(100%, 100%, 100%)" fill-opacity="1" d="M 69.414062 13.003906 L 69.414062 19.265625 L 68.046875 19.265625 L 68.046875 13.003906 L 65.863281 13.003906 L 65.863281 11.84375 L 71.601562 11.84375 L 71.601562 12.996094 Z M 69.414062 13.003906 "/>
<path fill-rule="nonzero" fill="rgb(100%, 100%, 100%)" fill-opacity="1" d="M 72.855469 16.875 C 72.859375 17.617188 73.441406 18.222656 74.183594 18.253906 C 74.839844 18.21875 75.464844 17.953125 75.945312 17.503906 L 76.074219 18.832031 C 75.425781 19.238281 74.671875 19.4375 73.914062 19.402344 C 72.445312 19.4375 71.28125 18.183594 71.414062 16.726562 C 71.414062 15.039062 72.449219 14.023438 73.90625 14.023438 C 75.644531 14.023438 76.15625 14.949219 76.15625 16.859375 Z M 73.90625 15.050781 C 73.703125 15.070312 73.507812 15.125 73.328125 15.210938 C 73.105469 15.433594 72.957031 15.71875 72.898438 16.027344 L 74.925781 16.027344 C 74.878906 15.441406 74.773438 15.046875 73.898438 15.046875 Z M 73.90625 15.050781 "/>
<path fill-rule="nonzero" fill="rgb(100%, 100%, 100%)" fill-opacity="1" d="M 79.90625 19.410156 C 78.40625 19.410156 77.386719 18.414062 77.386719 16.679688 C 77.238281 15.265625 78.347656 14.035156 79.769531 14.039062 C 80.820312 14.039062 81.699219 14.28125 81.699219 15.097656 L 81.699219 15.390625 C 81.703125 15.488281 81.703125 15.585938 81.699219 15.683594 L 80.378906 15.683594 C 80.378906 15.210938 80.257812 15.121094 79.898438 15.121094 C 79.753906 15.109375 79.609375 15.125 79.46875 15.171875 C 79.359375 15.21875 78.839844 15.496094 78.839844 16.671875 C 78.839844 17.984375 79.589844 18.277344 80.152344 18.277344 C 80.722656 18.277344 81.265625 18.042969 81.652344 17.625 L 81.78125 18.886719 C 81.21875 19.242188 80.566406 19.421875 79.90625 19.410156 Z M 79.90625 19.410156 "/>
<path fill-rule="nonzero" fill="rgb(100%, 100%, 100%)" fill-opacity="1" d="M 87.796875 19.265625 L 86.4375 19.265625 C 86.4375 17.96875 86.484375 17.707031 86.484375 17.015625 C 86.484375 15.578125 86.4375 15.21875 85.875 15.21875 C 85.65625 15.210938 85.433594 15.25 85.230469 15.328125 C 84.984375 15.507812 84.757812 15.710938 84.554688 15.9375 L 84.554688 19.265625 L 83.191406 19.265625 L 83.191406 11.054688 L 84.554688 11.054688 L 84.554688 14.632812 C 84.914062 14.246094 85.421875 14.027344 85.949219 14.03125 C 87.699219 14.03125 87.855469 15.113281 87.855469 16.28125 C 87.855469 16.484375 87.855469 16.703125 87.855469 16.90625 C 87.824219 17.601562 87.824219 18 87.796875 19.265625 Z M 87.796875 19.265625 "/>
<path fill-rule="nonzero" fill="rgb(100%, 100%, 100%)" fill-opacity="1" d="M 94.027344 19.265625 L 92.664062 19.265625 C 92.664062 17.765625 92.707031 17.648438 92.707031 16.679688 C 92.71875 16.46875 92.71875 16.261719 92.707031 16.050781 C 92.664062 15.398438 92.527344 15.21875 92.121094 15.21875 C 91.90625 15.207031 91.6875 15.246094 91.484375 15.328125 C 91.234375 15.503906 91.007812 15.707031 90.808594 15.9375 L 90.808594 19.265625 L 89.453125 19.265625 L 89.453125 15.683594 C 89.441406 15.179688 89.398438 14.679688 89.316406 14.183594 L 90.53125 14.183594 L 90.667969 14.78125 C 91.042969 14.308594 91.609375 14.035156 92.210938 14.03125 C 93.953125 14.03125 94.109375 15.113281 94.109375 16.28125 L 94.109375 16.90625 C 94.074219 17.601562 94.058594 18 94.027344 19.265625 Z M 94.027344 19.265625 "/>
<path fill-rule="nonzero" fill="rgb(100%, 100%, 100%)" fill-opacity="1" d="M 96.285156 13.207031 C 95.839844 13.191406 95.488281 12.828125 95.488281 12.382812 C 95.488281 11.941406 95.84375 11.582031 96.285156 11.574219 C 96.71875 11.570312 97.0625 11.9375 97.035156 12.367188 C 97.046875 12.800781 96.71875 13.171875 96.285156 13.207031 Z M 95.609375 19.265625 L 95.609375 14.175781 L 96.96875 14.175781 L 96.96875 19.265625 Z M 95.609375 19.265625 "/>
<path fill-rule="nonzero" fill="rgb(100%, 100%, 100%)" fill-opacity="1" d="M 100.085938 19.410156 C 99.429688 19.425781 98.78125 19.253906 98.21875 18.914062 L 98.363281 17.789062 C 98.855469 18.132812 99.449219 18.308594 100.050781 18.292969 C 100.703125 18.292969 100.851562 18.089844 100.851562 17.917969 C 100.851562 17.109375 98.203125 17.332031 98.203125 15.503906 C 98.203125 14.59375 98.953125 14.003906 100.3125 14.003906 C 100.925781 14.007812 101.527344 14.164062 102.066406 14.453125 L 101.910156 15.644531 C 101.433594 15.277344 100.847656 15.082031 100.246094 15.089844 C 100.019531 15.089844 99.570312 15.148438 99.570312 15.425781 C 99.570312 16.175781 102.234375 16.074219 102.234375 17.773438 C 102.238281 18.675781 101.496094 19.410156 100.085938 19.410156 Z M 100.085938 19.410156 "/>
<path fill-rule="nonzero" fill="rgb(100%, 100%, 100%)" fill-opacity="1" d="M 105.839844 19.410156 C 104.339844 19.410156 103.320312 18.414062 103.320312 16.679688 C 103.171875 15.265625 104.285156 14.035156 105.703125 14.039062 C 106.753906 14.039062 107.632812 14.28125 107.632812 15.097656 L 107.632812 15.390625 C 107.636719 15.488281 107.636719 15.585938 107.632812 15.683594 L 106.3125 15.683594 C 106.3125 15.210938 106.191406 15.121094 105.832031 15.121094 C 105.6875 15.109375 105.542969 15.125 105.40625 15.171875 C 105.292969 15.21875 104.773438 15.496094 104.773438 16.671875 C 104.773438 17.984375 105.523438 18.277344 106.085938 18.277344 C 106.65625 18.277344 107.199219 18.042969 107.585938 17.625 L 107.707031 18.886719 C 107.148438 19.238281 106.5 19.421875 105.839844 19.410156 Z M 105.839844 19.410156 "/>
<path fill-rule="nonzero" fill="rgb(100%, 100%, 100%)" fill-opacity="1" d="M 113.496094 19.265625 L 112.140625 19.265625 C 112.140625 17.96875 112.183594 17.707031 112.183594 17.015625 C 112.183594 15.578125 112.140625 15.21875 111.578125 15.21875 C 111.355469 15.210938 111.136719 15.25 110.933594 15.328125 C 110.6875 15.507812 110.460938 15.710938 110.257812 15.9375 L 110.257812 19.265625 L 108.898438 19.265625 L 108.898438 11.054688 L 110.25 11.054688 L 110.25 14.632812 C 110.609375 14.246094 111.117188 14.027344 111.644531 14.03125 C 113.390625 14.03125 113.550781 15.113281 113.550781 16.28125 C 113.550781 16.484375 113.550781 16.703125 113.550781 16.90625 C 113.535156 17.601562 113.535156 18 113.496094 19.265625 Z M 113.496094 19.265625 "/>
<path fill-rule="nonzero" fill="rgb(100%, 100%, 100%)" fill-opacity="1" d="M 116.152344 16.875 C 116.15625 17.617188 116.738281 18.222656 117.480469 18.253906 C 118.136719 18.21875 118.761719 17.953125 119.242188 17.503906 L 119.363281 18.832031 C 118.71875 19.238281 117.964844 19.4375 117.203125 19.402344 C 115.757812 19.40625 114.621094 18.171875 114.75 16.734375 C 114.75 15.046875 115.785156 14.03125 117.238281 14.03125 C 118.980469 14.03125 119.488281 14.953125 119.488281 16.867188 Z M 117.203125 15.050781 C 117.003906 15.070312 116.808594 15.125 116.625 15.210938 C 116.402344 15.433594 116.253906 15.71875 116.199219 16.027344 L 118.222656 16.027344 C 118.175781 15.441406 118.078125 15.046875 117.203125 15.046875 Z M 117.203125 15.050781 "/>
<path fill-rule="nonzero" fill="rgb(100%, 100%, 100%)" fill-opacity="1" d="M 72.683594 28.628906 C 72.683594 30.5625 71.355469 31.402344 69.53125 31.402344 C 68.03125 31.402344 66.578125 30.515625 66.578125 28.90625 L 66.578125 23.859375 L 67.933594 23.859375 L 67.933594 28.589844 C 67.839844 29.535156 68.632812 30.328125 69.578125 30.234375 C 70.5625 30.398438 71.429688 29.574219 71.316406 28.582031 L 71.316406 23.859375 L 72.683594 23.859375 Z M 72.683594 28.628906 "/>
<path fill-rule="nonzero" fill="rgb(100%, 100%, 100%)" fill-opacity="1" d="M 78.75 31.265625 L 77.390625 31.265625 C 77.390625 29.765625 77.4375 29.648438 77.4375 28.679688 C 77.449219 28.46875 77.449219 28.261719 77.4375 28.050781 C 77.390625 27.398438 77.257812 27.21875 76.851562 27.21875 C 76.632812 27.207031 76.417969 27.246094 76.214844 27.328125 C 75.964844 27.503906 75.738281 27.707031 75.539062 27.9375 L 75.539062 31.265625 L 74.136719 31.265625 L 74.136719 27.683594 C 74.128906 27.179688 74.082031 26.679688 74.003906 26.183594 L 75.21875 26.183594 L 75.351562 26.773438 C 75.726562 26.304688 76.296875 26.027344 76.898438 26.023438 C 78.636719 26.023438 78.796875 27.105469 78.796875 28.273438 L 78.796875 28.890625 C 78.75 29.601562 78.75 30 78.75 31.265625 Z M 78.75 31.265625 "/>
<path fill-rule="nonzero" fill="rgb(100%, 100%, 100%)" fill-opacity="1" d="M 81.074219 25.207031 C 80.632812 25.191406 80.28125 24.828125 80.28125 24.382812 C 80.28125 23.941406 80.632812 23.582031 81.074219 23.574219 C 81.507812 23.570312 81.851562 23.9375 81.824219 24.367188 C 81.839844 24.800781 81.507812 25.171875 81.074219 25.207031 Z M 80.398438 31.265625 L 80.398438 26.175781 L 81.75 26.175781 L 81.75 31.265625 Z M 80.398438 31.265625 "/>
<path fill-rule="nonzero" fill="rgb(100%, 100%, 100%)" fill-opacity="1" d="M 85.746094 31.417969 L 84.75 31.417969 L 82.84375 26.167969 L 84.34375 26.167969 L 85.320312 29.273438 L 86.25 26.175781 L 87.621094 26.175781 Z M 85.746094 31.417969 "/>
<path fill-rule="nonzero" fill="rgb(100%, 100%, 100%)" fill-opacity="1" d="M 89.851562 28.875 C 89.847656 29.617188 90.433594 30.230469 91.175781 30.261719 C 91.835938 30.226562 92.457031 29.960938 92.941406 29.511719 L 93.066406 30.839844 C 92.421875 31.246094 91.667969 31.449219 90.90625 31.417969 C 89.441406 31.449219 88.273438 30.199219 88.410156 28.738281 C 88.410156 27.050781 89.445312 26.039062 90.898438 26.039062 C 92.640625 26.039062 93.148438 26.960938 93.148438 28.875 Z M 90.898438 27.050781 C 90.699219 27.070312 90.503906 27.125 90.324219 27.210938 C 90.097656 27.433594 89.949219 27.722656 89.894531 28.035156 L 91.921875 28.035156 C 91.875 27.441406 91.777344 27.050781 90.898438 27.050781 Z M 90.898438 27.050781 "/>
<path fill-rule="nonzero" fill="rgb(100%, 100%, 100%)" fill-opacity="1" d="M 96.691406 27.703125 C 96.691406 27.457031 96.691406 27.179688 96.488281 27.179688 C 96.285156 27.179688 96.171875 27.421875 95.960938 27.800781 L 95.960938 31.273438 L 94.605469 31.273438 L 94.605469 27.675781 C 94.597656 27.171875 94.554688 26.671875 94.46875 26.175781 L 95.683594 26.175781 L 95.820312 26.78125 C 96.035156 26.371094 96.4375 26.089844 96.898438 26.03125 C 97.574219 26.03125 97.800781 26.453125 97.800781 27.066406 C 97.8125 27.230469 97.8125 27.394531 97.800781 27.554688 Z M 96.691406 27.703125 "/>
<path fill-rule="nonzero" fill="rgb(100%, 100%, 100%)" fill-opacity="1" d="M 100.550781 31.417969 C 99.894531 31.433594 99.25 31.261719 98.683594 30.921875 L 98.828125 29.796875 C 99.320312 30.140625 99.914062 30.316406 100.515625 30.300781 C 101.167969 30.300781 101.316406 30.097656 101.316406 29.925781 C 101.316406 29.113281 98.671875 29.339844 98.671875 27.511719 C 98.671875 26.601562 99.421875 26.011719 100.777344 26.011719 C 101.390625 26.015625 101.992188 26.171875 102.53125 26.460938 L 102.375 27.652344 C 101.898438 27.289062 101.3125 27.09375 100.710938 27.105469 C 100.484375 27.105469 100.035156 27.164062 100.035156 27.441406 C 100.035156 28.191406 102.699219 28.078125 102.699219 29.789062 C 102.699219 30.675781 101.953125 31.417969 100.550781 31.417969 Z M 100.550781 31.417969 "/>
<path fill-rule="nonzero" fill="rgb(100%, 100%, 100%)" fill-opacity="1" d="M 104.78125 25.207031 C 104.339844 25.191406 103.988281 24.828125 103.988281 24.382812 C 103.988281 23.941406 104.339844 23.582031 104.78125 23.574219 C 105.214844 23.570312 105.558594 23.9375 105.53125 24.367188 C 105.546875 24.800781 105.214844 25.171875 104.78125 25.207031 Z M 104.109375 31.265625 L 104.109375 26.175781 L 105.464844 26.175781 L 105.464844 31.265625 Z M 104.109375 31.265625 "/>
<path fill-rule="nonzero" fill="rgb(100%, 100%, 100%)" fill-opacity="1" d="M 108.808594 31.417969 C 108.023438 31.453125 107.394531 30.78125 107.484375 30 L 107.484375 27.082031 L 106.734375 27.082031 L 106.734375 26.183594 L 107.484375 26.183594 L 107.484375 24.449219 L 108.824219 24.449219 L 108.824219 26.175781 L 109.933594 26.175781 L 109.933594 27.074219 L 108.824219 27.074219 L 108.824219 29.714844 C 108.824219 30.210938 108.960938 30.234375 109.078125 30.234375 C 109.417969 30.179688 109.742188 30.054688 110.023438 29.859375 L 110.160156 30.984375 C 109.753906 31.238281 109.289062 31.386719 108.808594 31.417969 Z M 108.808594 31.417969 "/>
<path fill-rule="nonzero" fill="rgb(100%, 100%, 100%)" fill-opacity="1" d="M 114.195312 31.265625 C 114.136719 31.074219 114.089844 30.875 114.058594 30.675781 C 113.734375 31.136719 113.207031 31.414062 112.640625 31.425781 C 111.867188 31.523438 111.171875 30.933594 111.140625 30.148438 C 111.117188 29.777344 111.203125 29.40625 111.390625 29.085938 C 111.660156 28.726562 113.167969 28.335938 113.863281 28.175781 L 113.863281 27.75 C 113.863281 27.195312 113.789062 27 113.210938 27 C 112.988281 27 112.558594 27 112.460938 27.128906 C 112.40625 27.253906 112.382812 27.390625 112.394531 27.523438 L 111.292969 27.621094 C 111.292969 27.539062 111.292969 27.472656 111.292969 27.40625 C 111.296875 27.152344 111.332031 26.898438 111.40625 26.65625 C 111.917969 26.179688 112.613281 25.941406 113.308594 26.003906 C 114.503906 26.003906 115.222656 26.558594 115.222656 27.503906 L 115.222656 29.753906 C 115.234375 30.257812 115.292969 30.757812 115.402344 31.253906 Z M 112.410156 25.351562 C 111.996094 25.351562 111.660156 25.015625 111.660156 24.601562 C 111.660156 24.1875 111.996094 23.851562 112.410156 23.851562 C 112.824219 23.851562 113.160156 24.1875 113.160156 24.601562 C 113.160156 25.015625 112.824219 25.351562 112.410156 25.351562 Z M 113.910156 29.039062 C 113.453125 29.144531 113.011719 29.292969 112.582031 29.484375 C 112.53125 29.601562 112.507812 29.734375 112.515625 29.863281 C 112.515625 30.15625 112.582031 30.40625 112.921875 30.40625 C 113.316406 30.34375 113.675781 30.125 113.910156 29.796875 Z M 114.335938 25.351562 C 113.921875 25.351562 113.585938 25.015625 113.585938 24.601562 C 113.585938 24.1875 113.921875 23.851562 114.335938 23.851562 C 114.75 23.851562 115.085938 24.1875 115.085938 24.601562 C 115.085938 25.027344 114.734375 25.367188 114.308594 25.351562 Z M 114.335938 25.351562 "/>
<path fill-rule="nonzero" fill="rgb(100%, 100%, 100%)" fill-opacity="1" d="M 118.359375 31.417969 C 117.5625 31.472656 116.910156 30.792969 117 30 L 117 27.082031 L 116.25 27.082031 L 116.25 26.183594 L 117 26.183594 L 117 24.449219 L 118.34375 24.449219 L 118.34375 26.175781 L 119.453125 26.175781 L 119.453125 27.074219 L 118.34375 27.074219 L 118.34375 29.714844 C 118.34375 30.210938 118.476562 30.234375 118.597656 30.234375 C 118.9375 30.179688 119.261719 30.054688 119.542969 29.859375 L 119.675781 30.984375 C 119.277344 31.230469 118.828125 31.382812 118.359375 31.417969 Z M 118.359375 31.417969 "/>
<path fill-rule="nonzero" fill="rgb(100%, 100%, 100%)" fill-opacity="1" d="M 69.667969 43.265625 L 66.75 43.265625 L 66.75 35.902344 C 67.628906 35.84375 68.503906 35.796875 69.398438 35.796875 C 71.070312 35.796875 71.746094 36.71875 71.746094 37.6875 C 71.773438 38.355469 71.402344 38.980469 70.800781 39.269531 C 71.675781 39.457031 72.273438 40.269531 72.195312 41.160156 C 72.1875 42.425781 71.152344 43.265625 69.667969 43.265625 Z M 69.179688 36.898438 L 68.109375 36.898438 L 68.109375 38.773438 L 69.082031 38.773438 C 69.96875 38.773438 70.28125 38.390625 70.28125 37.828125 C 70.28125 37.265625 69.914062 36.898438 69.1875 36.898438 Z M 69.316406 39.898438 L 68.109375 39.898438 L 68.109375 42.148438 L 69.253906 42.148438 C 70.320312 42.148438 70.753906 41.804688 70.753906 41.003906 C 70.753906 40.199219 70.199219 39.890625 69.324219 39.890625 Z M 69.316406 39.898438 "/>
<path fill-rule="nonzero" fill="rgb(100%, 100%, 100%)" fill-opacity="1" d="M 75.515625 39.703125 C 75.515625 39.457031 75.515625 39.179688 75.316406 39.179688 C 75.113281 39.179688 75 39.421875 74.78125 39.800781 L 74.78125 43.273438 L 73.425781 43.273438 L 73.425781 39.675781 C 73.417969 39.171875 73.375 38.671875 73.289062 38.175781 L 74.503906 38.175781 L 74.640625 38.78125 C 74.855469 38.371094 75.257812 38.089844 75.71875 38.03125 C 76.394531 38.03125 76.621094 38.453125 76.621094 39.066406 C 76.632812 39.230469 76.632812 39.394531 76.621094 39.554688 Z M 75.515625 39.703125 "/>
<path fill-rule="nonzero" fill="rgb(100%, 100%, 100%)" fill-opacity="1" d="M 80.25 43.265625 C 80.191406 43.074219 80.144531 42.875 80.113281 42.675781 C 79.789062 43.136719 79.261719 43.414062 78.699219 43.425781 C 77.921875 43.523438 77.226562 42.933594 77.199219 42.148438 C 77.171875 41.777344 77.261719 41.40625 77.445312 41.085938 C 77.714844 40.726562 79.222656 40.335938 79.921875 40.175781 L 79.921875 39.75 C 79.921875 39.195312 79.84375 39 79.265625 39 C 79.042969 39 78.613281 39 78.515625 39.128906 C 78.460938 39.253906 78.4375 39.390625 78.449219 39.523438 L 77.347656 39.621094 C 77.347656 39.539062 77.347656 39.472656 77.347656 39.40625 C 77.351562 39.152344 77.386719 38.898438 77.460938 38.65625 C 77.976562 38.179688 78.667969 37.941406 79.363281 38.003906 C 80.558594 38.003906 81.277344 38.558594 81.277344 39.503906 L 81.277344 41.753906 C 81.289062 42.257812 81.347656 42.757812 81.457031 43.253906 Z M 79.933594 41.015625 C 79.480469 41.121094 79.035156 41.269531 78.609375 41.460938 C 78.558594 41.582031 78.535156 41.710938 78.539062 41.84375 C 78.539062 42.136719 78.609375 42.382812 78.945312 42.382812 C 79.34375 42.320312 79.699219 42.101562 79.933594 41.773438 Z M 79.933594 41.015625 "/>
<path fill-rule="nonzero" fill="rgb(100%, 100%, 100%)" fill-opacity="1" d="M 86.308594 43.265625 L 86.175781 42.675781 C 85.800781 43.148438 85.234375 43.425781 84.628906 43.425781 C 83.28125 43.425781 82.785156 42.800781 82.785156 41.519531 L 82.785156 38.175781 L 84.148438 38.175781 L 84.148438 41.398438 C 84.148438 41.863281 84.148438 42.234375 84.71875 42.234375 C 84.933594 42.238281 85.144531 42.207031 85.34375 42.136719 C 85.589844 41.949219 85.820312 41.742188 86.03125 41.511719 L 86.03125 38.175781 L 87.390625 38.175781 L 87.390625 41.765625 C 87.394531 42.269531 87.441406 42.773438 87.523438 43.265625 Z M 86.308594 43.265625 "/>
<path fill-rule="nonzero" fill="rgb(100%, 100%, 100%)" fill-opacity="1" d="M 93.515625 43.265625 L 92.152344 43.265625 C 92.152344 41.765625 92.199219 41.648438 92.199219 40.679688 C 92.207031 40.46875 92.207031 40.261719 92.199219 40.050781 C 92.152344 39.398438 92.015625 39.21875 91.613281 39.21875 C 91.394531 39.207031 91.175781 39.246094 90.976562 39.328125 C 90.726562 39.503906 90.5 39.707031 90.300781 39.9375 L 90.300781 43.265625 L 88.941406 43.265625 L 88.941406 39.683594 C 88.933594 39.179688 88.886719 38.679688 88.808594 38.183594 L 90 38.183594 L 90.136719 38.773438 C 90.507812 38.304688 91.078125 38.027344 91.679688 38.023438 C 93.421875 38.023438 93.578125 39.105469 93.578125 40.273438 L 93.578125 40.890625 C 93.5625 41.601562 93.554688 42 93.515625 43.265625 Z M 93.515625 43.265625 "/>
<path fill-rule="nonzero" fill="rgb(100%, 100%, 100%)" fill-opacity="1" d="M 96.691406 43.417969 C 96.035156 43.433594 95.386719 43.261719 94.824219 42.921875 L 94.964844 41.796875 C 95.460938 42.140625 96.050781 42.316406 96.652344 42.300781 C 97.304688 42.300781 97.453125 42.097656 97.453125 41.925781 C 97.453125 41.113281 94.808594 41.339844 94.808594 39.511719 C 94.808594 38.601562 95.558594 38.011719 96.914062 38.011719 C 97.527344 38.015625 98.128906 38.171875 98.671875 38.460938 L 98.511719 39.652344 C 98.035156 39.289062 97.449219 39.09375 96.847656 39.105469 C 96.621094 39.105469 96.171875 39.164062 96.171875 39.441406 C 96.171875 40.191406 98.835938 40.078125 98.835938 41.789062 C 98.84375 42.675781 98.101562 43.417969 96.691406 43.417969 Z M 96.691406 43.417969 "/>
<path fill-rule="nonzero" fill="rgb(100%, 100%, 100%)" fill-opacity="1" d="M 102.179688 43.417969 C 100.679688 43.417969 99.660156 42.421875 99.660156 40.679688 C 99.511719 39.265625 100.625 38.035156 102.046875 38.039062 C 103.09375 38.039062 103.972656 38.273438 103.972656 39.097656 L 103.972656 39.390625 C 103.976562 39.488281 103.976562 39.585938 103.972656 39.683594 L 102.652344 39.683594 C 102.652344 39.210938 102.53125 39.121094 102.171875 39.121094 C 102.027344 39.109375 101.882812 39.132812 101.746094 39.179688 C 101.632812 39.226562 101.113281 39.511719 101.113281 40.679688 C 101.113281 41.992188 101.863281 42.292969 102.425781 42.292969 C 102.996094 42.292969 103.539062 42.058594 103.925781 41.640625 L 104.046875 42.898438 C 103.488281 43.25 102.839844 43.429688 102.179688 43.417969 Z M 102.179688 43.417969 "/>
<path fill-rule="nonzero" fill="rgb(100%, 100%, 100%)" fill-opacity="1" d="M 109.808594 43.265625 L 108.449219 43.265625 C 108.449219 41.976562 108.496094 41.707031 108.496094 41.015625 C 108.496094 39.578125 108.449219 39.21875 107.886719 39.21875 C 107.667969 39.210938 107.449219 39.25 107.242188 39.328125 C 106.996094 39.507812 106.769531 39.710938 106.566406 39.9375 L 106.566406 43.265625 L 105.203125 43.265625 L 105.203125 35.054688 L 106.566406 35.054688 L 106.566406 38.632812 C 106.929688 38.25 107.433594 38.035156 107.960938 38.039062 C 109.710938 38.039062 109.867188 39.121094 109.867188 40.289062 C 109.867188 40.492188 109.867188 40.703125 109.867188 40.90625 C 109.84375 41.601562 109.84375 42 109.808594 43.265625 Z M 109.808594 43.265625 "/>
<path fill-rule="nonzero" fill="rgb(100%, 100%, 100%)" fill-opacity="1" d="M 116.167969 43.417969 L 115.417969 43.417969 L 114.382812 41.015625 L 113.4375 43.417969 L 112.6875 43.417969 L 110.65625 38.167969 L 112.09375 38.167969 L 113.175781 41.101562 L 114.414062 37.996094 L 115.726562 41.152344 L 116.765625 38.152344 L 118.085938 38.152344 Z M 116.167969 43.417969 "/>
<path fill-rule="nonzero" fill="rgb(100%, 100%, 100%)" fill-opacity="1" d="M 119.863281 40.875 C 119.863281 41.617188 120.449219 42.230469 121.191406 42.261719 C 121.847656 42.226562 122.472656 41.960938 122.953125 41.511719 L 123.074219 42.839844 C 122.429688 43.246094 121.675781 43.449219 120.914062 43.417969 C 119.449219 43.449219 118.28125 42.199219 118.417969 40.738281 C 118.417969 39.050781 119.453125 38.039062 120.90625 38.039062 C 122.648438 38.039062 123.15625 38.960938 123.15625 40.875 Z M 120.914062 39.050781 C 120.714844 39.070312 120.519531 39.125 120.335938 39.210938 C 120.113281 39.433594 119.964844 39.722656 119.910156 40.035156 L 121.933594 40.035156 C 121.890625 39.441406 121.792969 39.050781 120.914062 39.050781 Z M 120.914062 39.050781 "/>
<path fill-rule="nonzero" fill="rgb(100%, 100%, 100%)" fill-opacity="1" d="M 125.175781 37.207031 C 124.734375 37.191406 124.382812 36.832031 124.378906 36.390625 C 124.378906 35.949219 124.734375 35.589844 125.175781 35.578125 C 125.609375 35.578125 125.957031 35.949219 125.925781 36.382812 C 125.929688 36.8125 125.601562 37.171875 125.175781 37.207031 Z M 124.5 43.265625 L 124.5 38.175781 L 125.859375 38.175781 L 125.859375 43.265625 Z M 124.5 43.265625 "/>
<path fill-rule="nonzero" fill="rgb(100%, 100%, 100%)" fill-opacity="1" d="M 131.78125 39.390625 C 131.851562 39.578125 131.882812 39.777344 131.878906 39.976562 C 131.878906 41.175781 130.957031 41.984375 129.503906 41.984375 C 129.273438 41.988281 129.046875 41.960938 128.828125 41.894531 C 128.648438 42.074219 128.496094 42.1875 128.496094 42.414062 C 128.5 42.5625 128.632812 42.679688 128.78125 42.660156 C 129.34375 42.660156 129.832031 42.601562 130.394531 42.601562 C 131.609375 42.601562 132.359375 42.765625 132.359375 43.949219 C 132.359375 45.449219 130.761719 46.199219 129.285156 46.199219 C 128.09375 46.199219 127.078125 45.984375 127.078125 44.976562 C 127.109375 44.421875 127.464844 43.933594 127.988281 43.738281 C 127.5625 43.644531 127.253906 43.277344 127.238281 42.839844 C 127.238281 42.292969 127.84375 42.023438 128.265625 41.671875 C 127.589844 41.398438 127.164062 40.730469 127.199219 40.003906 C 127.199219 38.886719 128.152344 38.070312 129.539062 38.070312 C 130.019531 38.050781 130.496094 38.179688 130.898438 38.445312 C 131.484375 38.457031 132.070312 38.394531 132.644531 38.265625 L 132.644531 39.421875 Z M 130.28125 43.777344 C 129.742188 43.777344 129.449219 43.824219 128.933594 43.835938 C 128.617188 44.0625 128.386719 44.289062 128.386719 44.585938 C 128.386719 45.015625 128.722656 45.136719 129.449219 45.136719 C 130.507812 45.136719 131.003906 44.566406 131.003906 44.136719 C 130.980469 43.828125 130.949219 43.777344 130.261719 43.777344 Z M 129.53125 39.066406 C 129.300781 39.054688 129.066406 39.117188 128.871094 39.246094 C 128.703125 39.460938 128.613281 39.726562 128.617188 39.996094 C 128.570312 40.527344 129.007812 40.976562 129.539062 40.941406 C 129.765625 40.9375 129.988281 40.875 130.183594 40.761719 C 130.367188 40.558594 130.460938 40.285156 130.441406 40.011719 C 130.542969 39.472656 130.085938 38.988281 129.539062 39.058594 Z M 129.53125 39.066406 "/>
</svg>
